<?xml version="1.0" encoding="UTF-8" standalone="no"?>
<!-- Created with Inkscape (http://www.inkscape.org/) -->

<svg
   xmlns:dc="http://purl.org/dc/elements/1.1/"
   xmlns:cc="http://creativecommons.org/ns#"
   xmlns:rdf="http://www.w3.org/1999/02/22-rdf-syntax-ns#"
   xmlns:svg="http://www.w3.org/2000/svg"
   xmlns="http://www.w3.org/2000/svg"
   xmlns:sodipodi="http://sodipodi.sourceforge.net/DTD/sodipodi-0.dtd"
   xmlns:inkscape="http://www.inkscape.org/namespaces/inkscape"
   width="512"
   height="1024"
   viewBox="0 0 135.46666 270.93334"
   version="1.1"
   id="svg8"
   inkscape:version="0.92.3 (2405546, 2018-03-11)"
   sodipodi:docname="dirTree.svg">
  <defs
     id="defs2">
    <inkscape:path-effect
       effect="bspline"
       id="path-effect828"
       is_visible="true"
       weight="33.333333"
       steps="2"
       helper_size="0"
       apply_no_weight="true"
       apply_with_weight="true"
       only_selected="false" />
  </defs>
  <sodipodi:namedview
     id="base"
     pagecolor="#ffffff"
     bordercolor="#666666"
     borderopacity="1.0"
     inkscape:pageopacity="0.0"
     inkscape:pageshadow="2"
     inkscape:zoom="1.4"
     inkscape:cx="45.271824"
     inkscape:cy="539.08894"
     inkscape:document-units="mm"
     inkscape:current-layer="layer1"
     showgrid="false"
     units="px"
     inkscape:snap-global="false"
     inkscape:window-width="1920"
     inkscape:window-height="1017"
     inkscape:window-x="-8"
     inkscape:window-y="-8"
     inkscape:window-maximized="1" />
  <metadata
     id="metadata5">
    <rdf:RDF>
      <cc:Work
         rdf:about="">
        <dc:format>image/svg+xml</dc:format>
        <dc:type
           rdf:resource="http://purl.org/dc/dcmitype/StillImage" />
        <dc:title></dc:title>
      </cc:Work>
    </rdf:RDF>
  </metadata>
  <g
     inkscape:label="圖層 1"
     inkscape:groupmode="layer"
     id="layer1"
     transform="translate(0,-26.06665)">
    <ellipse
       style="opacity:1;fill:#cccccc;fill-opacity:1;stroke:none;stroke-width:0.96499997;stroke-miterlimit:4;stroke-dasharray:none;stroke-dashoffset:0;stroke-opacity:1"
       id="path965-2-8"
       cx="41.403107"
       cy="144.21207"
       rx="28.551922"
       ry="38.787518" />
    <ellipse
       style="opacity:1;fill:#999999;fill-opacity:1;stroke:none;stroke-width:0.96499985;stroke-miterlimit:4;stroke-dasharray:none;stroke-dashoffset:0;stroke-opacity:1"
       id="path965-2-8-1-5-6"
       cx="46.251549"
       cy="210.74342"
       rx="19.259079"
       ry="7.0033016" />
    <path
       style="opacity:1;fill:#ececec;fill-opacity:1;stroke:none;stroke-width:0.96499997;stroke-miterlimit:4;stroke-dasharray:none;stroke-dashoffset:0;stroke-opacity:1"
       d="m 53.600017,146.1701 c -0.477891,-0.0485 -1.637397,0.89654 -2.702117,2.22259 l -5.125158,6.38273 v -5.01216 c 0,-0.37183 -0.907108,-0.67123 -2.033782,-0.67123 -1.126684,0 -2.033794,0.2994 -2.033794,0.67123 v 14.40312 l -8.139696,-5.06292 c -0.374946,-0.23321 -1.341809,0.21679 -2.16775,1.00899 -0.825953,0.79221 -1.188865,1.61804 -0.813929,1.85125 l 11.121375,6.91729 v 4.90127 c -0.09733,0.15901 -0.116744,0.28286 -0.04294,0.35806 l 0.04294,0.0438 v 36.35609 c 0,0.37183 0.90711,0.67123 2.033794,0.67123 1.126674,0 2.033782,-0.2994 2.033782,-0.67123 v -35.74578 c 0.299911,-0.15215 0.606945,-0.31554 0.92109,-0.49942 l 10.598142,-6.20311 c 1.717419,-1.00524 2.865969,-2.05314 2.575234,-2.34949 l -1.406933,-1.43423 c -0.290735,-0.29635 -1.907293,0.27436 -3.624721,1.27959 l -9.062812,5.30463 v -10.49132 c 0.483799,-0.39611 1.039168,-0.95884 1.57324,-1.62399 l 7.008297,-8.72872 c 1.135705,-1.41445 1.720989,-2.71073 1.311875,-2.9067 l -1.980195,-0.94847 c -0.02554,-0.0123 -0.0541,-0.0198 -0.0859,-0.0231 z"
       id="rect834-3-6-5"
       inkscape:connector-curvature="0" />
    <ellipse
       style="opacity:1;fill:#ececec;fill-opacity:1;stroke:none;stroke-width:0.96499997;stroke-miterlimit:4;stroke-dasharray:none;stroke-dashoffset:0;stroke-opacity:1"
       id="path965-2-8-1-4"
       cx="93.658508"
       cy="139.09427"
       rx="28.551922"
       ry="43.3666" />
    <ellipse
       style="opacity:1;fill:#999999;fill-opacity:1;stroke:none;stroke-width:0.96499985;stroke-miterlimit:4;stroke-dasharray:none;stroke-dashoffset:0;stroke-opacity:1"
       id="path965-2-8-1-5-5"
       cx="96.890808"
       cy="209.12729"
       rx="19.259079"
       ry="7.0033016" />
    <path
       style="opacity:1;fill:#cccccc;fill-opacity:1;stroke:none;stroke-width:0.96499997;stroke-miterlimit:4;stroke-dasharray:none;stroke-dashoffset:0;stroke-opacity:1"
       d="m 105.85542,112.50127 c -0.47789,-0.0726 -1.63739,1.34208 -2.70211,3.3271 l -5.125162,9.55461 v -7.50293 c 0,-0.55662 -0.907108,-1.0048 -2.033783,-1.0048 -1.126685,0 -2.033795,0.44818 -2.033795,1.0048 v 21.56069 l -8.139696,-7.57892 c -0.374945,-0.34911 -1.341808,0.32452 -2.16775,1.51041 -0.825952,1.18588 -1.188864,2.42211 -0.813929,2.77122 l 11.121375,10.35481 v 7.33694 c -0.09733,0.23803 -0.116743,0.42342 -0.04294,0.53599 l 0.04294,0.0655 v 54.42312 c 0,0.55662 0.90711,1.0048 2.033795,1.0048 1.126675,0 2.033783,-0.44818 2.033783,-1.0048 V 155.3503 c 0.299911,-0.22777 0.606944,-0.47236 0.921089,-0.74761 l 10.598143,-9.28572 c 1.71742,-1.50479 2.86597,-3.07345 2.57523,-3.51707 l -1.40693,-2.14696 c -0.29073,-0.44361 -1.90729,0.4107 -3.62472,1.91549 l -9.062812,7.94073 v -15.70494 c 0.483799,-0.59296 1.039168,-1.43533 1.57324,-2.43103 l 7.008292,-13.06641 c 1.13571,-2.11736 1.72099,-4.05783 1.31188,-4.35119 l -1.9802,-1.4198 c -0.0255,-0.0183 -0.0541,-0.0296 -0.0859,-0.0345 z"
       id="rect834-3-6-58"
       inkscape:connector-curvature="0" />
    <ellipse
       style="opacity:1;fill:#999999;fill-opacity:1;stroke:none;stroke-width:0.96499997;stroke-miterlimit:4;stroke-dasharray:none;stroke-dashoffset:0;stroke-opacity:1"
       id="path965-2-8-1"
       cx="75.880898"
       cy="156.60252"
       rx="28.551922"
       ry="30.976143" />
    <ellipse
       style="opacity:1;fill:#999999;fill-opacity:1;stroke:none;stroke-width:0.96499985;stroke-miterlimit:4;stroke-dasharray:none;stroke-dashoffset:0;stroke-opacity:1"
       id="path965-2-8-1-5"
       cx="73.59137"
       cy="216.6693"
       rx="13.333209"
       ry="7.0033016" />
    <path
       style="opacity:1;fill:#cccccc;fill-opacity:1;stroke:none;stroke-width:0.96499997;stroke-miterlimit:4;stroke-dasharray:none;stroke-dashoffset:0;stroke-opacity:1"
       d="m 84.576158,150.47982 c -0.477891,-0.0485 -1.637397,0.89655 -2.702117,2.2226 l -5.125158,6.38273 v -5.01216 c 0,-0.37183 -0.907108,-0.67123 -2.033783,-0.67123 -1.126685,0 -2.033795,0.2994 -2.033795,0.67123 v 14.40312 l -8.139696,-5.06292 c -0.374945,-0.23322 -1.341808,0.21679 -2.16775,1.00899 -0.825952,0.7922 -1.188864,1.61804 -0.813929,1.85125 l 11.121375,6.91729 v 4.90127 c -0.09733,0.15901 -0.116743,0.28285 -0.04294,0.35806 l 0.04294,0.0438 v 36.35609 c 0,0.37183 0.90711,0.67123 2.033795,0.67123 1.126675,0 2.033783,-0.2994 2.033783,-0.67123 v -35.74578 c 0.299911,-0.15215 0.606944,-0.31555 0.921089,-0.49942 l 10.598143,-6.20311 c 1.717419,-1.00524 2.865967,-2.05314 2.575234,-2.3495 l -1.406933,-1.43422 c -0.290735,-0.29635 -1.907293,0.27436 -3.624721,1.27959 l -9.062812,5.30462 V 164.7108 c 0.483799,-0.39611 1.039168,-0.95883 1.57324,-1.62398 l 7.008297,-8.72872 c 1.135705,-1.41445 1.720989,-2.71073 1.311873,-2.9067 l -1.980194,-0.94847 c -0.02554,-0.0123 -0.0541,-0.0198 -0.0859,-0.0231 z"
       id="rect834-3-6"
       inkscape:connector-curvature="0" />
  </g>
</svg>
