<?xml version="1.0" encoding="utf-8"?>
<!-- Generator: Adobe Illustrator 24.0.0, SVG Export Plug-In . SVG Version: 6.00 Build 0)  -->
<svg version="1.1" id="Layer_1" xmlns="http://www.w3.org/2000/svg" xmlns:xlink="http://www.w3.org/1999/xlink" x="0px" y="0px"
	 width="300px" height="216px" viewBox="0 0 300 216" style="enable-background:new 0 0 300 216;" xml:space="preserve">
<style type="text/css">
	.st0{fill:#1A91AD;}
	.st1{fill:#FFFFFF;}
	.st2{fill:#2B9CC9;}
</style>
<g>
	<g>
		<path class="st0" d="M103.7,204.9v-10.9l-4,7.6h-1.3l-4.1-7.6v11h-1.4v-12.5h1.9l4.2,7.8l4.1-7.8h1.9v12.5H103.7z"/>
		<path class="st0" d="M114.7,202.5c0,0.3-0.1,0.6-0.3,0.9c-0.2,0.5-0.6,0.9-1,1.1c-0.4,0.2-0.9,0.3-1.4,0.3c-0.4,0-0.8,0-1.2,0
			c-0.4,0-0.9,0-1.3,0c-0.4,0-0.9-0.1-1.3-0.2c-0.4-0.1-0.8-0.3-1.1-0.6c-0.2-0.2-0.4-0.5-0.5-0.8c-0.1-0.3-0.2-0.7-0.2-1.1
			c0-0.5,0-1.1,0-1.7c0-0.6,0-1.2,0-1.7c0-0.6,0.1-1,0.3-1.4c0.2-0.4,0.4-0.7,0.7-0.9c0.3-0.2,0.6-0.4,1-0.5
			c0.4-0.1,0.8-0.2,1.3-0.2c0.2,0,0.4,0,0.7,0c0.2,0,0.5,0,0.7,0c0.2,0,0.5,0,0.7,0c0.2,0,0.4,0,0.5,0.1c0.8,0.1,1.5,0.4,1.9,1
			c0.4,0.6,0.6,1.3,0.6,2.2v1.9h-7c0,0.2,0,0.3,0,0.5c0,0.2,0,0.4,0,0.6c0,0.2,0,0.4,0.1,0.5c0,0.2,0.1,0.3,0.2,0.5
			c0.2,0.4,0.7,0.6,1.3,0.6c0.4,0,0.8,0,1.2,0s0.9,0,1.3,0c0.3,0,0.6-0.1,0.8-0.2c0.2-0.1,0.4-0.2,0.5-0.4c0.1-0.2,0.2-0.4,0.2-0.6
			c0-0.2,0.1-0.5,0.1-0.8h1.3C114.7,201.9,114.7,202.2,114.7,202.5z M113.3,199.2c0-0.2,0-0.3,0-0.5c0-0.3-0.1-0.6-0.2-0.9
			c-0.1-0.3-0.4-0.5-0.7-0.6c-0.2,0-0.4-0.1-0.6-0.1s-0.5,0-0.7-0.1c-0.2,0-0.5,0-0.8,0c-0.3,0-0.5,0-0.7,0c-0.3,0-0.5,0-0.8,0.1
			c-0.2,0.1-0.4,0.1-0.6,0.3c-0.2,0.1-0.3,0.3-0.4,0.5c-0.1,0.2-0.2,0.5-0.2,0.9c0,0.1,0,0.3,0,0.4c0,0.1,0,0.3,0,0.4h5.6
			C113.3,199.5,113.3,199.3,113.3,199.2z"/>
		<path class="st0" d="M123,204.9v-0.6c-0.2,0.2-0.5,0.3-0.8,0.4c-0.3,0.1-0.7,0.2-1,0.2c-0.4,0-0.8,0.1-1.2,0.1c-0.4,0-0.8,0-1.1,0
			c-0.4,0-0.7-0.1-1.1-0.3c-0.3-0.2-0.6-0.3-0.9-0.6c-0.2-0.2-0.4-0.6-0.6-0.9c-0.1-0.4-0.2-0.8-0.3-1.2c0-0.5-0.1-1.1-0.1-1.7
			c0-0.6,0-1.1,0-1.5c0.1-1.8,1-2.8,2.6-3c0.3,0,0.7-0.1,1.1-0.1s0.8,0,1.1,0c0.4,0,0.8,0.1,1.2,0.1c0.3,0.1,0.7,0.2,1,0.5v-3.9h1.4
			v12.5H123z M123,197.8c-0.2-0.2-0.5-0.4-0.8-0.6c-0.3-0.1-0.7-0.2-1-0.3c-0.1,0-0.3,0-0.5,0c-0.2,0-0.4,0-0.6,0
			c-0.2,0-0.4,0-0.6,0c-0.2,0-0.4,0-0.5,0c-0.3,0-0.6,0.1-0.8,0.2c-0.2,0.1-0.4,0.3-0.5,0.5c-0.2,0.3-0.3,0.7-0.3,1.3
			c0,0.2,0,0.4,0,0.6c0,0.2,0,0.5,0,0.7c0,0.2,0,0.5,0,0.7c0,0.2,0,0.5,0,0.6c0.1,0.5,0.2,0.9,0.5,1.3c0.3,0.3,0.7,0.5,1.2,0.5
			c0.3,0,0.7,0,1,0c0.4,0,0.7,0,1,0c0.4,0,0.7-0.1,1-0.2c0.3-0.1,0.6-0.3,0.9-0.6V197.8z"/>
		<path class="st0" d="M126.6,194.1v-1.8h1.5v1.8H126.6z M126.6,204.9v-9.2h1.5v9.2H126.6z"/>
		<path class="st0" d="M138.4,204.9c-0.2,0-0.5-0.1-0.7-0.2c-0.2-0.1-0.5-0.3-0.6-0.5c-0.6,0.4-1.3,0.6-2.1,0.7c-0.4,0-0.8,0-1.3,0
			s-0.9,0-1.3-0.1c-0.7,0-1.2-0.3-1.6-0.7c-0.3-0.5-0.5-1-0.6-1.8c0-0.3,0-0.5,0-0.8c0-0.2,0.1-0.5,0.1-0.7c0.1-0.3,0.2-0.5,0.3-0.7
			c0.2-0.2,0.4-0.4,0.6-0.5c0.2-0.1,0.5-0.2,0.7-0.3c0.3-0.1,0.5-0.1,0.7-0.1h4v-0.8c0-0.5-0.1-0.8-0.3-1c-0.2-0.2-0.5-0.3-0.9-0.3
			c-0.2,0-0.4,0-0.7-0.1c-0.2,0-0.5,0-0.7,0c-0.2,0-0.5,0-0.7,0c-0.2,0-0.4,0-0.6,0c-0.3,0-0.6,0.1-0.8,0.2
			c-0.2,0.1-0.3,0.4-0.3,0.8v0.4h-1.4v-0.5c0-0.4,0.1-0.7,0.2-1c0.1-0.3,0.3-0.5,0.5-0.7c0.2-0.2,0.5-0.3,0.7-0.4
			c0.3-0.1,0.6-0.1,0.9-0.1c0.6,0,1.1,0,1.7,0c0.6,0,1.1,0,1.6,0.1c0.3,0,0.6,0.1,0.9,0.3c0.3,0.1,0.5,0.3,0.7,0.6
			c0.2,0.2,0.3,0.5,0.4,0.8c0.1,0.3,0.2,0.6,0.2,1v4.7c0,0.2,0,0.3,0.1,0.4c0.1,0.1,0.2,0.1,0.4,0.1h0.5v1.3H138.4z M136.7,200.5
			h-3.8c-0.3,0-0.6,0.1-0.9,0.2c-0.3,0.2-0.4,0.4-0.4,0.7c0,0.2,0,0.3,0,0.5s0,0.3,0,0.5c0,0.7,0.4,1.1,1.1,1.1c0.3,0,0.7,0,1,0
			s0.6,0,1,0c0.4,0,0.7-0.1,1.1-0.1c0.3-0.1,0.7-0.2,1-0.5V200.5z"/>
		<path class="st0" d="M154.3,204.9l-0.9-3.3h-6.7l-0.9,3.3h-1.4l3.4-12.5h4.6l3.3,12.5H154.3z M151.3,193.6h-2.4l-1.8,6.6h6
			L151.3,193.6z"/>
		<path class="st0" d="M164.4,201.4c0.1,0.5,0.1,1,0,1.6c-0.1,0.4-0.2,0.7-0.4,1s-0.4,0.4-0.7,0.6c-0.3,0.1-0.6,0.2-0.9,0.3
			c-0.3,0.1-0.6,0.1-0.9,0.1c-0.4,0-0.8,0-1.2,0c-0.4,0-0.8,0-1.2,0c-0.7,0-1.3-0.2-1.8-0.7c-0.4-0.4-0.7-1.1-0.7-1.9v-0.8h1.3v1
			c0,0.4,0.1,0.6,0.3,0.8c0.2,0.2,0.5,0.3,0.8,0.3c0.2,0,0.3,0,0.6,0c0.2,0,0.5,0,0.7,0s0.5,0,0.7,0s0.4,0,0.6,0
			c0.4,0,0.7-0.1,0.9-0.3c0.2-0.2,0.4-0.4,0.4-0.6c0-0.1,0-0.2,0-0.4c0-0.2,0-0.3,0-0.4c0-0.3-0.1-0.6-0.3-0.8
			c-0.2-0.2-0.4-0.3-0.7-0.3c-0.3,0-0.6,0-0.9,0c-0.3,0-0.6,0-0.9,0s-0.6,0-0.8,0s-0.5,0-0.7,0c-0.7,0-1.2-0.1-1.6-0.5
			s-0.5-0.9-0.6-1.6c0-0.3,0-0.7,0-1.1c0-0.4,0.2-0.7,0.3-1c0.3-0.4,0.6-0.7,1-0.8c0.4-0.1,0.8-0.2,1.2-0.2c0.5,0,1,0,1.6,0
			c0.6,0,1,0,1.5,0.1c0.7,0.1,1.2,0.3,1.5,0.7c0.3,0.4,0.5,0.9,0.5,1.6v0.7h-1.3v-0.7c0-0.6-0.3-0.9-0.8-1c-0.2,0-0.4-0.1-0.7-0.1
			c-0.3,0-0.5,0-0.8,0c-0.3,0-0.5,0-0.8,0c-0.3,0-0.5,0-0.7,0c-0.5,0-0.8,0.2-1,0.5c-0.2,0.3-0.2,0.7-0.2,1.2c0,0.3,0.1,0.5,0.3,0.6
			c0.2,0.2,0.4,0.2,0.7,0.2c0.4,0,0.9,0,1.5,0s1.1,0,1.6,0c0.6,0,1,0.2,1.5,0.4C164,200.2,164.3,200.7,164.4,201.4z"/>
		<path class="st0" d="M173.5,201.4c0.1,0.5,0.1,1,0,1.6c-0.1,0.4-0.2,0.7-0.4,1c-0.2,0.2-0.4,0.4-0.7,0.6s-0.6,0.2-0.9,0.3
			c-0.3,0.1-0.6,0.1-0.9,0.1c-0.4,0-0.8,0-1.2,0c-0.4,0-0.8,0-1.2,0c-0.7,0-1.3-0.2-1.8-0.7c-0.4-0.4-0.7-1.1-0.7-1.9v-0.8h1.3v1
			c0,0.4,0.1,0.6,0.3,0.8c0.2,0.2,0.5,0.3,0.8,0.3c0.2,0,0.3,0,0.6,0c0.2,0,0.5,0,0.7,0c0.2,0,0.5,0,0.7,0s0.4,0,0.6,0
			c0.4,0,0.7-0.1,0.9-0.3s0.4-0.4,0.4-0.6c0-0.1,0-0.2,0-0.4c0-0.2,0-0.3,0-0.4c0-0.3-0.1-0.6-0.3-0.8c-0.2-0.2-0.4-0.3-0.7-0.3
			c-0.3,0-0.6,0-0.9,0c-0.3,0-0.6,0-0.9,0s-0.6,0-0.8,0s-0.5,0-0.7,0c-0.7,0-1.2-0.1-1.6-0.5c-0.3-0.3-0.5-0.9-0.6-1.6
			c0-0.3,0-0.7,0-1.1c0-0.4,0.2-0.7,0.3-1c0.3-0.4,0.6-0.7,1-0.8c0.4-0.1,0.8-0.2,1.2-0.2c0.5,0,1,0,1.6,0c0.6,0,1,0,1.5,0.1
			c0.7,0.1,1.2,0.3,1.5,0.7c0.3,0.4,0.5,0.9,0.5,1.6v0.7H172v-0.7c0-0.6-0.3-0.9-0.8-1c-0.2,0-0.4-0.1-0.7-0.1c-0.3,0-0.5,0-0.8,0
			s-0.5,0-0.8,0c-0.3,0-0.5,0-0.7,0c-0.5,0-0.8,0.2-1,0.5c-0.2,0.3-0.2,0.7-0.2,1.2c0,0.3,0.1,0.5,0.3,0.6c0.2,0.2,0.4,0.2,0.7,0.2
			c0.4,0,0.9,0,1.5,0s1.1,0,1.6,0c0.6,0,1,0.2,1.5,0.4C173.1,200.2,173.4,200.7,173.5,201.4z"/>
		<path class="st0" d="M183.1,202.5c0,0.3-0.1,0.6-0.3,0.9c-0.2,0.5-0.6,0.9-1,1.1c-0.4,0.2-0.9,0.3-1.4,0.3c-0.4,0-0.8,0-1.2,0
			c-0.4,0-0.9,0-1.3,0c-0.4,0-0.9-0.1-1.3-0.2c-0.4-0.1-0.8-0.3-1.1-0.6c-0.2-0.2-0.4-0.5-0.5-0.8c-0.1-0.3-0.2-0.7-0.2-1.1
			c0-0.5,0-1.1,0-1.7c0-0.6,0-1.2,0-1.7c0-0.6,0.1-1,0.3-1.4c0.2-0.4,0.4-0.7,0.7-0.9c0.3-0.2,0.6-0.4,1-0.5
			c0.4-0.1,0.8-0.2,1.3-0.2c0.2,0,0.4,0,0.7,0c0.2,0,0.5,0,0.7,0c0.2,0,0.5,0,0.7,0c0.2,0,0.4,0,0.5,0.1c0.8,0.1,1.5,0.4,1.9,1
			c0.4,0.6,0.6,1.3,0.6,2.2v1.9h-7c0,0.2,0,0.3,0,0.5c0,0.2,0,0.4,0,0.6c0,0.2,0,0.4,0.1,0.5c0,0.2,0.1,0.3,0.2,0.5
			c0.2,0.4,0.7,0.6,1.3,0.6c0.4,0,0.8,0,1.2,0s0.9,0,1.3,0c0.3,0,0.6-0.1,0.8-0.2c0.2-0.1,0.4-0.2,0.5-0.4c0.1-0.2,0.2-0.4,0.2-0.6
			c0-0.2,0.1-0.5,0.1-0.8h1.3C183.2,201.9,183.2,202.2,183.1,202.5z M181.8,199.2c0-0.2,0-0.3,0-0.5c0-0.3-0.1-0.6-0.2-0.9
			c-0.1-0.3-0.4-0.5-0.7-0.6c-0.2,0-0.4-0.1-0.6-0.1s-0.5,0-0.7-0.1c-0.2,0-0.5,0-0.8,0c-0.3,0-0.5,0-0.7,0c-0.3,0-0.5,0-0.8,0.1
			c-0.2,0.1-0.4,0.1-0.6,0.3c-0.2,0.1-0.3,0.3-0.4,0.5c-0.1,0.2-0.2,0.5-0.2,0.9c0,0.1,0,0.3,0,0.4c0,0.1,0,0.3,0,0.4h5.6
			C181.8,199.5,181.8,199.3,181.8,199.2z"/>
		<path class="st0" d="M188.5,204.9c-0.4,0-0.7-0.1-1-0.2s-0.5-0.3-0.7-0.6c-0.2-0.2-0.3-0.5-0.5-0.9c-0.1-0.3-0.2-0.7-0.2-1.1v-5
			h-1.8v-1.3h1.8v-3.4h1.4v3.4h3.2v1.3h-3.2v5.3c0,0.2,0,0.4,0.1,0.5c0.1,0.2,0.2,0.3,0.3,0.4c0.1,0.1,0.3,0.2,0.4,0.2
			c0.2,0.1,0.3,0.1,0.5,0.1h1.9v1.3H188.5z"/>
		<path class="st0" d="M207.7,204.9v-10.9l-4,7.6h-1.3l-4.1-7.6v11h-1.4v-12.5h1.9l4.2,7.8l4.1-7.8h1.9v12.5H207.7z"/>
		<path class="st0" d="M218.5,204.9c-0.2,0-0.5-0.1-0.7-0.2c-0.2-0.1-0.5-0.3-0.6-0.5c-0.6,0.4-1.3,0.6-2.1,0.7c-0.4,0-0.8,0-1.3,0
			c-0.4,0-0.9,0-1.3-0.1c-0.7,0-1.2-0.3-1.6-0.7c-0.3-0.5-0.5-1-0.6-1.8c0-0.3,0-0.5,0-0.8c0-0.2,0.1-0.5,0.1-0.7
			c0.1-0.3,0.2-0.5,0.3-0.7c0.2-0.2,0.4-0.4,0.6-0.5c0.2-0.1,0.5-0.2,0.7-0.3c0.3-0.1,0.5-0.1,0.7-0.1h4v-0.8c0-0.5-0.1-0.8-0.3-1
			c-0.2-0.2-0.5-0.3-0.9-0.3c-0.2,0-0.4,0-0.7-0.1c-0.2,0-0.5,0-0.7,0s-0.5,0-0.7,0c-0.2,0-0.4,0-0.6,0c-0.3,0-0.6,0.1-0.8,0.2
			c-0.2,0.1-0.3,0.4-0.3,0.8v0.4h-1.4v-0.5c0-0.4,0.1-0.7,0.2-1c0.1-0.3,0.3-0.5,0.5-0.7c0.2-0.2,0.5-0.3,0.7-0.4
			c0.3-0.1,0.6-0.1,0.9-0.1c0.6,0,1.1,0,1.7,0c0.6,0,1.1,0,1.6,0.1c0.3,0,0.6,0.1,0.9,0.3c0.3,0.1,0.5,0.3,0.7,0.6
			c0.2,0.2,0.3,0.5,0.4,0.8c0.1,0.3,0.2,0.6,0.2,1v4.7c0,0.2,0,0.3,0.1,0.4c0.1,0.1,0.2,0.1,0.4,0.1h0.5v1.3H218.5z M216.8,200.5
			H213c-0.3,0-0.6,0.1-0.9,0.2c-0.3,0.2-0.4,0.4-0.4,0.7c0,0.2,0,0.3,0,0.5s0,0.3,0,0.5c0,0.7,0.4,1.1,1.1,1.1c0.3,0,0.7,0,1,0
			s0.6,0,1,0c0.4,0,0.7-0.1,1.1-0.1c0.3-0.1,0.7-0.2,1-0.5V200.5z"/>
		<path class="st0" d="M226.8,204.9v-6.3c0-0.5-0.1-0.8-0.4-1.1c-0.3-0.3-0.6-0.4-1-0.5c-0.3,0-0.7,0-1.1,0s-0.8,0-1.1,0.1
			c-0.7,0.1-1.3,0.4-1.7,1v6.8h-1.3v-9.2h1.3v0.7c0.3-0.2,0.7-0.4,1-0.5c0.4-0.1,0.8-0.2,1.1-0.2c0.4,0,0.8,0,1.2,0
			c0.4,0,0.8,0.1,1.1,0.1c0.3,0,0.6,0.1,0.9,0.3c0.3,0.2,0.5,0.3,0.7,0.6c0.2,0.2,0.4,0.5,0.5,0.8c0.1,0.3,0.2,0.6,0.2,1v6.5H226.8z
			"/>
		<path class="st0" d="M237.7,204.9c-0.2,0-0.5-0.1-0.7-0.2c-0.2-0.1-0.5-0.3-0.6-0.5c-0.6,0.4-1.3,0.6-2.1,0.7c-0.4,0-0.8,0-1.3,0
			s-0.9,0-1.3-0.1c-0.7,0-1.2-0.3-1.6-0.7c-0.3-0.5-0.5-1-0.6-1.8c0-0.3,0-0.5,0-0.8c0-0.2,0.1-0.5,0.1-0.7c0.1-0.3,0.2-0.5,0.3-0.7
			c0.2-0.2,0.4-0.4,0.6-0.5s0.5-0.2,0.7-0.3c0.3-0.1,0.5-0.1,0.7-0.1h4v-0.8c0-0.5-0.1-0.8-0.3-1c-0.2-0.2-0.5-0.3-0.9-0.3
			c-0.2,0-0.4,0-0.7-0.1c-0.2,0-0.5,0-0.7,0c-0.2,0-0.5,0-0.7,0c-0.2,0-0.4,0-0.6,0c-0.3,0-0.6,0.1-0.8,0.2
			c-0.2,0.1-0.3,0.4-0.3,0.8v0.4h-1.4v-0.5c0-0.4,0.1-0.7,0.2-1c0.1-0.3,0.3-0.5,0.5-0.7c0.2-0.2,0.5-0.3,0.7-0.4
			c0.3-0.1,0.6-0.1,0.9-0.1c0.6,0,1.1,0,1.7,0c0.6,0,1.1,0,1.6,0.1c0.3,0,0.6,0.1,0.9,0.3c0.3,0.1,0.5,0.3,0.7,0.6
			c0.2,0.2,0.3,0.5,0.4,0.8c0.1,0.3,0.2,0.6,0.2,1v4.7c0,0.2,0,0.3,0.1,0.4c0.1,0.1,0.2,0.1,0.4,0.1h0.5v1.3H237.7z M236,200.5h-3.8
			c-0.3,0-0.6,0.1-0.9,0.2c-0.3,0.2-0.4,0.4-0.4,0.7c0,0.2,0,0.3,0,0.5s0,0.3,0,0.5c0,0.7,0.4,1.1,1.1,1.1c0.3,0,0.7,0,1,0
			c0.3,0,0.6,0,1,0c0.4,0,0.7-0.1,1.1-0.1c0.3-0.1,0.7-0.2,1-0.5V200.5z"/>
		<path class="st0" d="M247.5,206.5c-0.1,0.4-0.3,0.7-0.5,1c-0.2,0.2-0.5,0.4-0.9,0.6c-0.4,0.1-0.8,0.2-1.3,0.2
			c-0.5,0-1.1,0-1.6,0.1c-0.6,0-1.1,0-1.6-0.1c-0.3,0-0.6-0.1-0.9-0.2c-0.3-0.1-0.5-0.2-0.7-0.4c-0.2-0.2-0.3-0.4-0.4-0.6
			c-0.1-0.2-0.2-0.5-0.2-0.9v-1.1h1.4v1c0,0.2,0,0.3,0.1,0.5c0.1,0.1,0.2,0.2,0.3,0.3c0.1,0.1,0.2,0.1,0.4,0.1c0.1,0,0.3,0,0.4,0
			c0.4,0,0.8,0,1.2,0c0.4,0,0.8,0,1.2,0c0.3,0,0.5,0,0.7-0.1c0.2,0,0.5-0.1,0.6-0.2c0.2-0.1,0.3-0.3,0.4-0.5
			c0.1-0.2,0.2-0.5,0.2-0.8v-1.1c-0.3,0.2-0.5,0.3-0.9,0.4c-0.3,0.1-0.6,0.1-1,0.2c-0.3,0-0.7,0-1,0c-0.3,0-0.6,0-1,0
			c-1.1,0-1.9-0.3-2.4-0.8c-0.5-0.6-0.8-1.5-0.8-2.7c0-0.4,0-0.9,0-1.4c0-0.5,0-0.9,0.1-1.4c0.1-1,0.4-1.8,0.9-2.2
			c0.5-0.4,1.2-0.7,2.1-0.8c0.4,0,0.7,0,1.1,0c0.4,0,0.7,0,1.1,0.1c0.3,0,0.7,0.1,1,0.1c0.3,0.1,0.6,0.2,0.9,0.4v-0.6h1.3v9.5
			C247.7,205.7,247.6,206.1,247.5,206.5z M246.4,197.9c-0.3-0.3-0.6-0.5-0.9-0.6c-0.4-0.1-0.7-0.2-1-0.2h-1.7c-0.5,0-1,0.1-1.3,0.3
			c-0.4,0.2-0.6,0.6-0.7,1.3c-0.1,0.5-0.1,0.9-0.1,1.4c0,0.2,0,0.5,0,0.7c0,0.2,0,0.5,0,0.7c0,0.3,0,0.5,0.1,0.8
			c0,0.2,0.1,0.5,0.2,0.6c0.1,0.2,0.3,0.3,0.4,0.5c0.2,0.1,0.4,0.2,0.7,0.2c0.4,0,0.9,0,1.3,0c0.4,0,0.8,0,1.1,0
			c0.1,0,0.2,0,0.4-0.1c0.2,0,0.4-0.1,0.5-0.2c0.2-0.1,0.4-0.2,0.5-0.3c0.2-0.1,0.3-0.2,0.4-0.4V197.9z"/>
		<path class="st0" d="M257.4,202.5c0,0.3-0.1,0.6-0.3,0.9c-0.2,0.5-0.6,0.9-1,1.1c-0.4,0.2-0.9,0.3-1.4,0.3c-0.4,0-0.8,0-1.2,0
			c-0.4,0-0.9,0-1.3,0c-0.4,0-0.9-0.1-1.3-0.2c-0.4-0.1-0.8-0.3-1.1-0.6c-0.2-0.2-0.4-0.5-0.5-0.8c-0.1-0.3-0.2-0.7-0.2-1.1
			c0-0.5,0-1.1,0-1.7c0-0.6,0-1.2,0-1.7c0-0.6,0.1-1,0.3-1.4c0.2-0.4,0.4-0.7,0.7-0.9c0.3-0.2,0.6-0.4,1-0.5
			c0.4-0.1,0.8-0.2,1.3-0.2c0.2,0,0.4,0,0.7,0s0.5,0,0.7,0c0.2,0,0.5,0,0.7,0c0.2,0,0.4,0,0.5,0.1c0.8,0.1,1.5,0.4,1.9,1
			c0.4,0.6,0.6,1.3,0.6,2.2v1.9h-7c0,0.2,0,0.3,0,0.5c0,0.2,0,0.4,0,0.6c0,0.2,0,0.4,0.1,0.5c0,0.2,0.1,0.3,0.2,0.5
			c0.2,0.4,0.7,0.6,1.3,0.6c0.4,0,0.8,0,1.2,0s0.9,0,1.3,0c0.3,0,0.6-0.1,0.8-0.2c0.2-0.1,0.4-0.2,0.5-0.4c0.1-0.2,0.2-0.4,0.2-0.6
			c0-0.2,0.1-0.5,0.1-0.8h1.3C257.4,201.9,257.4,202.2,257.4,202.5z M256,199.2c0-0.2,0-0.3,0-0.5c0-0.3-0.1-0.6-0.2-0.9
			c-0.1-0.3-0.4-0.5-0.7-0.6c-0.2,0-0.4-0.1-0.6-0.1s-0.5,0-0.7-0.1c-0.2,0-0.5,0-0.8,0c-0.3,0-0.5,0-0.7,0c-0.3,0-0.5,0-0.8,0.1
			c-0.2,0.1-0.4,0.1-0.6,0.3c-0.2,0.1-0.3,0.3-0.4,0.5c-0.1,0.2-0.2,0.5-0.2,0.9c0,0.1,0,0.3,0,0.4c0,0.1,0,0.3,0,0.4h5.6
			C256,199.5,256,199.3,256,199.2z"/>
		<path class="st0" d="M269,204.9v-6.6c0-0.4-0.1-0.7-0.3-0.9c-0.2-0.2-0.4-0.3-0.7-0.4c-0.3-0.1-0.5-0.1-0.8-0.1
			c-0.3,0-0.6,0.1-0.8,0.1c-0.1,0-0.3,0.1-0.4,0.2c-0.1,0.1-0.3,0.2-0.4,0.4c-0.1,0.1-0.2,0.3-0.3,0.5c-0.1,0.2-0.1,0.3-0.1,0.5v6.3
			h-1.4v-6.4c0-0.4-0.1-0.7-0.2-1c-0.2-0.2-0.4-0.4-0.6-0.5c-0.3-0.1-0.6-0.1-0.9-0.1c-0.3,0-0.6,0-0.9,0.1
			c-0.3,0.1-0.6,0.2-0.8,0.4c-0.2,0.2-0.3,0.4-0.3,0.6v6.8h-1.4v-9.2h1.4v0.6c0.2-0.3,0.5-0.4,0.8-0.5c0.3-0.1,0.6-0.1,0.9-0.1
			c0.2,0,0.5,0,0.7,0c0.2,0,0.5,0,0.7,0.1c0.3,0.1,0.6,0.2,0.9,0.3c0.3,0.2,0.5,0.4,0.7,0.8c0.2-0.4,0.5-0.6,0.7-0.8
			c0.3-0.2,0.6-0.3,1-0.3c0.2,0,0.5,0,0.8-0.1c0.3,0,0.5,0,0.8,0c0.3,0,0.6,0.1,0.9,0.3c0.3,0.1,0.5,0.3,0.7,0.5
			c0.2,0.2,0.4,0.5,0.5,0.8c0.1,0.3,0.2,0.6,0.2,1v6.6H269z"/>
		<path class="st0" d="M279.9,202.5c0,0.3-0.1,0.6-0.3,0.9c-0.2,0.5-0.6,0.9-1,1.1c-0.4,0.2-0.9,0.3-1.4,0.3c-0.4,0-0.8,0-1.2,0
			c-0.4,0-0.9,0-1.3,0c-0.4,0-0.9-0.1-1.3-0.2c-0.4-0.1-0.8-0.3-1.1-0.6c-0.2-0.2-0.4-0.5-0.5-0.8c-0.1-0.3-0.2-0.7-0.2-1.1
			c0-0.5,0-1.1,0-1.7c0-0.6,0-1.2,0-1.7c0-0.6,0.1-1,0.3-1.4c0.2-0.4,0.4-0.7,0.7-0.9c0.3-0.2,0.6-0.4,1-0.5
			c0.4-0.1,0.8-0.2,1.3-0.2c0.2,0,0.4,0,0.7,0s0.5,0,0.7,0c0.2,0,0.5,0,0.7,0c0.2,0,0.4,0,0.5,0.1c0.8,0.1,1.5,0.4,1.9,1
			c0.4,0.6,0.6,1.3,0.6,2.2v1.9h-7c0,0.2,0,0.3,0,0.5c0,0.2,0,0.4,0,0.6c0,0.2,0,0.4,0.1,0.5c0,0.2,0.1,0.3,0.2,0.5
			c0.2,0.4,0.7,0.6,1.3,0.6c0.4,0,0.8,0,1.2,0s0.9,0,1.3,0c0.3,0,0.6-0.1,0.8-0.2c0.2-0.1,0.4-0.2,0.5-0.4c0.1-0.2,0.2-0.4,0.2-0.6
			c0-0.2,0.1-0.5,0.1-0.8h1.3C280,201.9,280,202.2,279.9,202.5z M278.6,199.2c0-0.2,0-0.3,0-0.5c0-0.3-0.1-0.6-0.2-0.9
			c-0.1-0.3-0.4-0.5-0.7-0.6c-0.2,0-0.4-0.1-0.6-0.1c-0.2,0-0.5,0-0.7-0.1c-0.2,0-0.5,0-0.8,0c-0.3,0-0.5,0-0.7,0
			c-0.3,0-0.5,0-0.8,0.1c-0.2,0.1-0.4,0.1-0.6,0.3c-0.2,0.1-0.3,0.3-0.4,0.5c-0.1,0.2-0.2,0.5-0.2,0.9c0,0.1,0,0.3,0,0.4
			c0,0.1,0,0.3,0,0.4h5.6C278.6,199.5,278.6,199.3,278.6,199.2z"/>
		<path class="st0" d="M288,204.9v-6.3c0-0.5-0.1-0.8-0.4-1.1c-0.3-0.3-0.6-0.4-1-0.5c-0.3,0-0.7,0-1.1,0s-0.8,0-1.1,0.1
			c-0.7,0.1-1.3,0.4-1.7,1v6.8h-1.3v-9.2h1.3v0.7c0.3-0.2,0.7-0.4,1-0.5c0.4-0.1,0.8-0.2,1.1-0.2c0.4,0,0.8,0,1.2,0
			c0.4,0,0.8,0.1,1.1,0.1c0.3,0,0.6,0.1,0.9,0.3c0.3,0.2,0.5,0.3,0.7,0.6c0.2,0.2,0.4,0.5,0.5,0.8c0.1,0.3,0.2,0.6,0.2,1v6.5H288z"
			/>
		<path class="st0" d="M294.7,204.9c-0.4,0-0.7-0.1-1-0.2s-0.5-0.3-0.7-0.6c-0.2-0.2-0.3-0.5-0.5-0.9c-0.1-0.3-0.2-0.7-0.2-1.1v-5
			h-1.8v-1.3h1.8v-3.4h1.4v3.4h3.2v1.3h-3.2v5.3c0,0.2,0,0.4,0.1,0.5c0.1,0.2,0.2,0.3,0.3,0.4c0.1,0.1,0.3,0.2,0.4,0.2
			c0.2,0.1,0.3,0.1,0.5,0.1h1.9v1.3H294.7z"/>
	</g>
	<g>
		<path class="st1" d="M50.8,180.1c-0.3,1.1-0.9,2.1-1.7,2.9c-0.4,0.4-0.8,0.7-1.3,0.9c-0.5,0.2-1,0.3-1.6,0.3h-0.9v1.2h-2.5
			c-0.8,0-1.7-0.2-2.5-0.6c-0.8-0.4-1.5-0.9-2.1-1.5l-3.1-3.7l-2.9,3.4c-1.3,1.5-3,2.3-5,2.3h-1.9v-3.6h1.5c0.5,0,1-0.1,1.4-0.4
			c0.4-0.3,0.8-0.6,1.1-1l3.2-3.9l-4.6-5.7v-22.3h-2.5v-3.8h2.5v-5.9h4.1v5.9h5.8v-5.9h4.1v5.9h1.8v3.8h-1.8v22.8l-4.2,5.1l3.8,4.4
			c0.1,0.2,0.4,0.4,0.8,0.6c0.4,0.2,0.7,0.3,0.9,0.3h0.5v-1.1h1.6c0.3,0,0.7-0.1,1-0.4c0.4-0.3,0.6-0.6,0.6-0.9l2.3-8.7h4.2
			L50.8,180.1z M37.6,148.5h-5.8v21.1l3.1,3.6l2.7-3.4V148.5z M60.8,168.4v17h-4.2v-17H43.7l0.1-3.7h12.9v-3.3h-9v-14.6h-2.8v-3.7
			h2.8v-4.4h4.3v4.4h13.8v-4.4h4.2v4.4h3.2v3.7h-3.2v8.7c0,1.6-0.5,2.9-1.5,4c-0.5,0.6-1.2,1-1.9,1.4c-0.7,0.3-1.5,0.5-2.4,0.5h-3.2
			v3.3h12.6v3.7H60.8z M65.7,146.8H51.9v3.4h13.8V146.8z M65.7,153.9H51.9v3.8h11.2c0.6,0,1.2-0.3,1.8-0.8c0.6-0.5,0.8-1.1,0.8-1.7
			V153.9z M71.4,184.2c-1,0-2-0.3-3-1c-1-0.6-1.7-1.6-2-2.8l-2.8-10H68l2.3,8.6c0.1,0.4,0.4,0.7,0.8,0.9c0.4,0.3,0.8,0.4,1.1,0.4
			h1.3v3.8H71.4z"/>
	</g>
	<g>
		<path class="st1" d="M97.7,158.9v-2.3h-12v2.3h-4.2v-5.7h1.6v-13.8h17.1v13.8h1.6v5.7H97.7z M100.1,181.7c-0.3,0.6-0.6,1.2-1,1.7
			c-0.5,0.6-1.1,1-1.8,1.4c-0.7,0.4-1.4,0.5-2.3,0.5h-3.5v-3.5h2.7c0.7,0,1.2-0.2,1.6-0.6c0.4-0.4,0.6-1,0.6-1.6v-2.3h-9.7v28.1
			h-3.9v-45.3h17.6v19.6C100.5,180.4,100.3,181,100.1,181.7z M96.5,163.5h-9.7v3.5h9.7V163.5z M96.5,170.5h-9.7v3.5h9.7V170.5z
			 M96.3,142.9h-9.2v10.3h2.5v-7.3h6.6V142.9z M96.3,149.1H93v4h3.3V149.1z M101.9,185.3v-3.5h6.5l-2.3-4.3h4.8l2.1,4.3h5l2.3-4.3
			h4.5l-2,4.3h5.7v3.5H101.9z M102.2,165v-3.3h26.1v3.3H102.2z M125.6,158c-1,1.1-2.3,1.6-3.9,1.6h-18.3v-17.9h6.7v-3h3.5v3h3.4v-3
			h3.5v3h6.6V154C127.1,155.6,126.6,157,125.6,158z M125,175.1c-0.9,0.9-2.2,1.3-3.8,1.3h-17.1v-9.2h22.4v4.1
			C126.5,173,126,174.3,125,175.1z M110.2,144.7h-3.3v4.5h3.3V144.7z M110.2,152h-3.3v4.6h3.3V152z M122.4,170.4h-14.2v2.8h12.7
			c0.4,0,0.8-0.2,1.1-0.5c0.3-0.4,0.4-0.7,0.4-1.1V170.4z M117,144.7h-3.4v4.5h3.4V144.7z M117,152h-3.4v4.6h3.4V152z M123.7,144.7
			h-3.2v4.5h3.2V144.7z M123.7,152h-3.2v4.6h0.8c0.6,0,1.2-0.3,1.7-0.8c0.5-0.5,0.7-1.1,0.7-1.7V152z"/>
	</g>
	<g>
		<path class="st1" d="M146.8,152.1c-0.7,1-1.6,1.8-2.6,2.4c-1,0.6-2.2,0.9-3.5,0.9h-3.8v-3.3h3.1c0.6,0,1.3-0.1,1.9-0.4
			c0.6-0.3,1.1-0.7,1.5-1.2l2.5-3.6h4.6L146.8,152.1z M177,185.4c-0.8,0-1.6-0.1-2.4-0.4c-0.8-0.3-1.5-0.6-2-1l-6.1-4.5h-11.7
			l-5.6,4.3c-0.3,0.2-0.7,0.4-1.1,0.6c-0.4,0.2-0.9,0.4-1.4,0.5c-0.5,0.1-1,0.3-1.5,0.4c-0.5,0.1-1,0.1-1.3,0.1h-6.7v-3.3h6
			c0.5,0,1.1-0.1,1.8-0.3c0.7-0.2,1.3-0.5,1.8-0.9l1.8-1.4H140v-21.9h40.9V172c0,1-0.2,2-0.6,2.9c-0.4,0.9-0.9,1.7-1.5,2.3
			c-0.7,0.7-1.5,1.2-2.4,1.6c-0.9,0.4-1.9,0.6-2.9,0.6h-0.8l2.4,1.8c0.4,0.3,0.8,0.5,1.3,0.6c0.5,0.1,1,0.2,1.6,0.2h6.3v3.3H177z
			 M148.1,145c-1.1,0-2.2-0.1-3.3-0.4c-0.6-0.2-1.2-0.4-1.7-0.7c-0.5-0.3-1-0.6-1.5-1.1l-4.6-4.2h5.6l2.5,2c0.4,0.3,0.8,0.5,1.4,0.8
			c0.6,0.2,1.2,0.3,1.7,0.3h2.8v3.3H148.1z M176.9,160.8h-32.7v3.1h32.7V160.8z M176.9,166.9h-32.7v3.1h32.7V166.9z M144.1,172.9
			v3.3h28.4c1,0,1.9-0.3,2.8-0.9c0.8-0.6,1.4-1.4,1.6-2.3H144.1z M178.9,155.5c-1.2,0-2.2-0.1-3.2-0.4c-1.1-0.2-2.1-0.6-2.9-1.1
			l-5.7-3.3l-2.8,2.3c-1.3,1-2.6,1.7-3.9,2.1c-1.2,0.4-2.6,0.5-4,0.5h-4.9v-3.2h5.1c0.6,0,1.3-0.1,2.1-0.3c0.8-0.2,1.5-0.5,2.1-1.1
			l5.8-4.9h5.6l-3.3,3h2.7l3.9,2.2c1.2,0.7,2.6,1,4.3,1h4.6v3.2H178.9z M178.6,148.8v-4.4h-17.3l-1.1,1.6c-0.3,0.4-0.6,0.7-0.9,1
			c-0.4,0.3-0.8,0.6-1.2,0.8c-0.6,0.3-1.2,0.5-1.8,0.7c-0.6,0.2-1.1,0.3-1.6,0.3h-2.4v-3.3h1.5c0.2,0,0.5,0,0.8-0.1
			c0.3-0.1,0.6-0.2,0.9-0.3c0.3-0.1,0.6-0.3,0.8-0.5c0.3-0.2,0.4-0.4,0.5-0.5l3.3-5.5h4.4l-1.5,2.6h19.4v7.6H178.6z"/>
	</g>
	<g>
		<path class="st1" d="M199.5,162.4v18.1c0,0.7-0.1,1.4-0.4,2c-0.3,0.6-0.6,1.2-1,1.6c-0.9,0.9-2.1,1.3-3.5,1.3h-2.3v-3.7h1.3
			c0.3,0,0.7-0.2,1.1-0.5c0.4-0.3,0.6-0.7,0.6-1.3v-21.2h44.5v3.6H199.5z M228.4,156.6c-1.3,0-2.5-0.1-3.7-0.3
			c-1.2-0.2-2.3-0.5-3.3-0.8l-5.1-1.8l-5.3,1.9c-0.3,0.1-0.8,0.2-1.3,0.4c-0.6,0.1-1.2,0.2-1.9,0.3c-0.7,0.1-1.4,0.2-2,0.2
			c-0.7,0.1-1.3,0.1-1.8,0.1h-10.6v-3.5h10.7c0.5,0,1.2,0,2.1-0.1c0.8-0.1,1.5-0.2,2-0.3l3-0.7l-13.1-4.5h10.7l7.6,2.5l7.1-2.5h10.1
			l-12,4.4l2.6,0.8c0.6,0.2,1.4,0.3,2.3,0.4c0.9,0.1,1.9,0.1,2.9,0.1h10v3.5H228.4z M193.3,146v-3.6H214v-3.6h4.4v3.6h20.7v3.6
			H193.3z M201.6,185.5V182h17v-4.3h-13.8v-3.4h13.8v-3.7h-9.5c-0.3,0.4-0.6,0.8-0.9,1.1c-0.3,0.3-0.7,0.5-1.1,0.7
			c-0.9,0.4-1.8,0.6-2.7,0.6h-2.7v-3.4h2.2c0.9,0,1.7-0.4,2.2-1.3l1.9-3.4h4.4l-1.2,2.3h7.5v-3.1h4.2v3.1h15.8v3.4h-15.8v3.7h14.1
			v3.4h-14.1v4.3h17.4v3.5H201.6z"/>
	</g>
	<g>
		<path class="st1" d="M261.9,144.8c0.3-0.3,0.6-0.6,0.8-0.9l0.8-1.2h1.3l1.8,2.1c0.1,0.2,0.3,0.3,0.6,0.4c0.2,0.1,0.5,0.2,0.7,0.3
			c0.2,0.1,0.5,0.1,0.8,0.2c0.3,0,0.5,0.1,0.7,0.1h1.3V144h-1c-0.2,0-0.5,0-0.7-0.1c-0.2-0.1-0.4-0.2-0.5-0.3l-0.7-0.8h2.9v-1.9h-6
			l0.5-0.9h-2.5l-1.8,2.9c-0.1,0.2-0.3,0.3-0.5,0.5c-0.2,0.1-0.4,0.2-0.7,0.2h-0.8c-0.4,0-0.6-0.1-0.8-0.3l-0.5-0.5h2.5v-1.9h-5.4
			l0.6-0.9h-2.6l-2,3.3c-0.1,0.2-0.3,0.3-0.5,0.5c-0.2,0.1-0.4,0.2-0.6,0.2h-0.8v1.9h1.3c0.5,0,1-0.1,1.4-0.4c0.5-0.3,0.9-0.6,1.1-1
			l1-1.6h1.3l1.6,1.9c0.1,0.1,0.3,0.2,0.4,0.3c0.2,0.1,0.3,0.2,0.5,0.2c0.2,0.1,0.4,0.1,0.6,0.2c0.2,0,0.4,0.1,0.5,0.1h0.2v0.6h-9.3
			v3.2h1.7v10.9h15c0.4,0,0.8-0.1,1.1-0.3c0.4-0.2,0.7-0.4,0.9-0.7c0.2-0.3,0.4-0.6,0.6-0.9c0.1-0.3,0.2-0.7,0.2-1.1V155h-15.6V154
			h12.8c0.3,0,0.6-0.1,0.9-0.3c0.3-0.2,0.5-0.4,0.8-0.7c0.2-0.2,0.4-0.5,0.5-0.7c0.1-0.3,0.2-0.5,0.2-0.8v-2.3h1.7V146H261v-0.7
			C261.3,145.2,261.6,145,261.9,144.8z M266.3,151.1v0.3c0,0.2-0.1,0.3-0.3,0.5c-0.2,0.2-0.3,0.3-0.5,0.3h-12.2v-1.1H266.3z
			 M266.5,156.9v0.5c0,0.2-0.1,0.4-0.3,0.6c-0.2,0.2-0.4,0.3-0.5,0.3h-12.4v-1.4H266.5z M267.9,148v1.2h-16.2V148H267.9z"/>
		<g>
			<polygon class="st1" points="278.3,142.1 280.9,142.1 280.9,140.1 273.5,140.1 273.5,142.1 275.9,142.1 275.9,148.6 273.7,148.6 
				273.7,150.6 275.9,150.6 275.9,158 273.5,158 273.5,160.1 280.6,160.1 280.6,158 278.3,158 278.3,150.6 280.6,150.6 280.6,148.6 
				278.3,148.6 			"/>
			<path class="st1" d="M288.8,158v-2.2h5.5v-2h-5.5v-2.2h1.8c0.5,0,1-0.1,1.4-0.3c0.4-0.2,0.8-0.4,1.1-0.8c0.3-0.3,0.6-0.7,0.8-1.1
				c0.2-0.4,0.3-0.9,0.3-1.3v-8h-13v11.5h5.3v2.2h-5.3v2h5.3v2.2h-5.7v2h14.1v-2H288.8z M291.9,146.9v1.4c0,0.1,0,0.3-0.1,0.4
				c-0.1,0.2-0.2,0.3-0.3,0.4c-0.1,0.1-0.3,0.2-0.5,0.3c-0.1,0.1-0.3,0.1-0.4,0.1h-1.7v-2.7H291.9z M291.9,142.1v2.7h-3.1v-2.7
				H291.9z M286.5,146.9v2.7h-3.1v-2.7H286.5z M286.5,142.1v2.7h-3.1v-2.7H286.5z"/>
		</g>
		<g>
			<path class="st1" d="M253.4,178.8l-2,3.3c-0.3,0.5-0.7,0.7-1.3,0.7h-1.3v2h1.5c0.8,0,1.5-0.1,1.9-0.4c0.5-0.2,0.9-0.7,1.3-1.4
				l2.5-4.2H253.4z"/>
			<path class="st1" d="M269.2,182.9c-0.2,0-0.4-0.1-0.6-0.2c-0.2-0.1-0.3-0.2-0.4-0.4l-2-3.5h-2.8l2.5,4.2c0.4,0.6,0.8,1.1,1.3,1.4
				c0.3,0.2,0.6,0.3,0.9,0.4c0.3,0.1,0.7,0.1,1.1,0.1h1.6v-2.1H269.2z"/>
			<path class="st1" d="M269.4,178.1c0.2-0.1,0.4-0.3,0.5-0.6c0.1-0.2,0.1-0.5,0.1-0.7c0-0.3-0.2-0.5-0.4-0.7l-2.9-2.4H263l3.2,2.6
				h-8.8l10.7-6.7H264l-3.1,1.9h-6.1l5.2-3.2h7.6c0.4,0,0.8-0.1,1.2-0.2c0.4-0.1,0.7-0.3,0.9-0.5l0,0c0.4-0.4,0.5-0.9,0.5-1.5v-0.8
				h-2.4v0.5c0,0.1,0,0.2-0.1,0.3c-0.1,0.1-0.2,0.1-0.3,0.1h-18.1v2.1h6.6l-5.7,3.5v1.7h7.5l-4.5,2.8h-3.9v2h9.3v3.9
				c0,0.3-0.1,0.6-0.2,0.8c-0.1,0.2-0.4,0.3-0.8,0.3h-2.5v2.1h2.7c1,0,1.7-0.3,2.3-0.8c0.6-0.5,0.8-1.3,0.8-2.3v-4.1h7.6
				C268.9,178.3,269.2,178.2,269.4,178.1z"/>
		</g>
		<g>
			<path class="st1" d="M282,169.4h3.5l-3,4.3v1.8h10.3c0.3,0,0.6-0.1,0.8-0.2c0.2-0.1,0.4-0.3,0.6-0.6c0.1-0.2,0.2-0.5,0.2-0.7
				c0-0.3-0.1-0.5-0.3-0.8l-2.1-3.4h-2.7l2.3,3.7h-6.1l2.9-4.1h6.5v-2h-5.3v-2.1h-2.4v2.1H282V169.4z"/>
			<path class="st1" d="M273.7,176.6v1.9h5.9c0.8,0,1.5-0.2,1.8-0.7c0.4-0.4,0.5-1,0.5-1.7v-1.8h-2.3v1.7c0,0.2-0.1,0.2-0.1,0.3
				c-0.1,0.1-0.2,0.1-0.4,0.1h-2.1l5-4.8V170h-4.8l5.2-4.6h-3.3l-5.5,4.8v1.8h4.8L273.7,176.6z"/>
			<path class="st1" d="M284.2,183c0,0.1-0.1,0.2-0.2,0.3c-0.2,0.2-0.4,0.2-0.4,0.2h-1.1c-0.1,0-0.2-0.1-0.3-0.2
				c-0.1-0.1-0.2-0.2-0.2-0.3v-4.2h-2.2v4.3c0,0.1,0,0.3,0,0.4h-0.4c0,0-0.1,0-0.2-0.1c-0.1-0.1-0.1-0.2-0.1-0.3v-4.3h-2.2v4.6
				c0,0.6,0.2,1.2,0.6,1.6c0.4,0.4,0.9,0.6,1.6,0.6h0.7v-2c0.1,0.5,0.3,0.9,0.7,1.2c0.2,0.2,0.5,0.4,0.8,0.6c0.3,0.1,0.7,0.2,1,0.2
				h1.6c0.4,0,0.8-0.1,1.1-0.2c0.3-0.1,0.6-0.4,0.9-0.6c0.2-0.2,0.4-0.5,0.5-0.8c0.1-0.3,0.2-0.6,0.2-0.9v-7h-2.4V183z"/>
			<path class="st1" d="M293,183.5c-0.1,0-0.2,0-0.3-0.1c-0.1-0.1-0.2-0.1-0.3-0.2c-0.1-0.1-0.2-0.2-0.2-0.3
				c-0.1-0.1-0.1-0.2-0.1-0.3V176l-2.3,0v6.6c0,0.4,0.1,0.7,0.2,1.1c0.2,0.3,0.4,0.6,0.6,0.9c0.3,0.3,0.6,0.5,1,0.7
				c0.4,0.2,0.8,0.3,1.2,0.3h2.3v-2H293z"/>
			<path class="st1" d="M274.1,183.2c0,0,0,0.1-0.1,0.2c-0.1,0.1-0.1,0.1-0.1,0.1h-0.6v2h1c0.7,0,1.2-0.2,1.6-0.6l0,0
				c0.4-0.4,0.6-0.9,0.6-1.5v-4.6h-2.3V183.2z"/>
		</g>
	</g>
	<g>
		<path class="st0" d="M11.1,204.9l-0.1-1.8H7.1l-1,1.8H3l6.4-11.8h4.1l0.8,11.8H11.1z M10.5,197.2L8.3,201h2.5L10.5,197.2z"/>
		<path class="st0" d="M16.7,204.9l2.1-8.9h2.8l-2.1,8.9H16.7z M19,195.1l0.5-2h2.8l-0.5,2H19z"/>
		<path class="st0" d="M27.7,198.2c-0.6,0-1.1,0.1-1.3,0.2c-0.2,0.1-0.4,0.5-0.6,1.1l-1.3,5.5h-2.8l2.1-8.9h2.8l-0.3,1.1
			c0.5-0.7,1.2-1.1,2.1-1.1h2.9l-0.5,2.1H27.7z"/>
		<path class="st0" d="M41.7,204.9l1.5-6.3l-3.7,6.3h-2.8l-0.8-6.3l-1.5,6.3h-2.8l2.8-11.8h3.3l1.3,7.8l5-7.8h0.5h2.8l-2.8,11.8
			H41.7z"/>
		<path class="st0" d="M55.1,204.9l-0.1-1.8h-3.9l-1,1.8H47l6.4-11.8h4.1l0.8,11.8H55.1z M54.5,197.2l-2.2,3.9h2.5L54.5,197.2z"/>
		<path class="st0" d="M70.6,204.9l1.5-6.3l-3.7,6.3h-2.8l-0.8-6.3l-1.5,6.3h-2.8l2.8-11.8h3.3l1.3,7.8l5-7.8h0.5h2.8l-2.8,11.8
			H70.6z"/>
	</g>
</g>
<g>
	<path class="st2" d="M124.4,110.3h-19.3c-7.7,0-9.8-6.2-7-13.9l28.7-75.8c2.7-7.7,6.7-11.2,14.4-11.2h16.2c7.7,0,9.8,6.2,7,13.9
		L138,98C135.3,105.7,132.1,110.3,124.4,110.3z"/>
	<g>
		<path class="st2" d="M204.5,110.4h15.2c6,0,9.1-4.8,7-10.8l-20.7-51c-2.1-6-6.9-9.5-12.9-9.5h-15.9c-6,0-9.1,4.8-7,10.8l19.7,49.6
			C192,105.5,198.5,110.4,204.5,110.4z"/>
		<path class="st2" d="M168.5,88h-8.6c-3.9,0-6-3.2-4.6-7.1l13.9-36c1.4-3.9,4.1-5.7,8-5.7h8.1c3.9,0,6,3.2,4.6,7.1l-13.2,34.6
			C175.3,84.8,172.4,88,168.5,88z"/>
		<path class="st2" d="M159.8,88h8.6c6.4,0,3.8-5.9,2.4-9.8l-13.9-36.6c-1.4-3.9-5-6.2-9-6.2h-7.1c-3.9,0-6,3.2-4.6,7.1l15.4,38.4
			C153,84.8,155.9,88,159.8,88z"/>
	</g>
	<g>
		<g>
			<path class="st2" d="M116.9,24.6l-4.6,0c-0.9,0-1.4-0.7-1-1.6l0.7-1.7c0.3-0.9,1.4-1.5,2.3-1.5l4.6,0c0.9,0,1.4,0.7,1,1.6
				l-0.7,1.7C118.9,23.9,117.8,24.6,116.9,24.6z"/>
			<path class="st2" d="M113.4,34l-4.6-0.1c-0.9,0-1.4-0.8-1-1.8l0.7-2c0.4-1,1.4-1.7,2.3-1.7l4.6,0.1c0.9,0,1.4,0.8,1,1.8l-0.7,2
				C115.4,33.2,114.3,34,113.4,34z"/>
			<path class="st2" d="M109.9,43.4l-4.6-0.1c-0.9,0-1.4-0.8-1-1.8l0.7-2c0.4-1,1.4-1.7,2.3-1.7l4.6,0.1c0.9,0,1.4,0.8,1,1.8l-0.7,2
				C111.9,42.7,110.8,43.4,109.9,43.4z"/>
			<path class="st2" d="M106.4,52.9l-4.6-0.1c-0.9,0-1.4-0.8-1-1.8l0.7-2c0.4-1,1.4-1.7,2.3-1.7l4.6,0.1c0.9,0,1.4,0.8,1,1.8l-0.7,2
				C108.4,52.1,107.3,52.9,106.4,52.9z"/>
			<path class="st2" d="M102.9,62.3l-4.6-0.1c-0.9,0-1.4-0.8-1-1.8l0.7-2c0.4-1,1.4-1.7,2.3-1.7l4.6,0.1c0.9,0,1.4,0.8,1,1.8l-0.7,2
				C104.9,61.5,103.8,62.3,102.9,62.3z"/>
			<path class="st2" d="M99.4,71.7l-4.6-0.1c-0.9,0-1.4-0.8-1-1.8l0.7-2c0.4-1,1.4-1.7,2.3-1.7l4.6,0.1c0.9,0,1.4,0.8,1,1.8l-0.7,2
				C101.4,71,100.3,71.7,99.4,71.7z"/>
		</g>
		<g>
			<path class="st2" d="M95.6,82.2L91,82.1c-0.9,0-1.4-0.8-1-1.8l0.7-2c0.4-1,1.4-1.7,2.3-1.7l4.6,0.1c0.9,0,1.4,0.8,1,1.8l-0.7,2
				C97.6,81.5,96.5,82.2,95.6,82.2z"/>
			<path class="st2" d="M92.1,91.7l-4.6-0.1c-0.9,0-1.4-0.8-1-1.8l0.7-2c0.4-1,1.4-1.7,2.3-1.7l4.6,0.1c0.9,0,1.4,0.8,1,1.8l-0.7,2
				C94.1,90.9,93,91.7,92.1,91.7z"/>
		</g>
	</g>
	<path class="st2" d="M181,27.5c0-2.9,0-7.7,0-10.6v-2.2c0-2.9,2-3.9,4.4-2.3l0.5,0.4c2.4,1.7,6.3,4.4,8.7,6l0.5,0.4
		c2.4,1.7,2.4,4.4,0,6l-0.5,0.4c-2.4,1.7-6.3,4.4-8.7,6l-0.5,0.4c-2.4,1.7-4.4,0.6-4.4-2.3V27.5z"/>
</g>
</svg>
