<?xml version="1.0" encoding="utf-8"?>
<!-- Generator: Adobe Illustrator 24.0.0, SVG Export Plug-In . SVG Version: 6.00 Build 0)  -->
<svg version="1.1" id="Layer_1" xmlns="http://www.w3.org/2000/svg" xmlns:xlink="http://www.w3.org/1999/xlink" x="0px" y="0px"
	 width="220px" height="52px" viewBox="0 0 220 52" style="enable-background:new 0 0 220 52;" xml:space="preserve">
<style type="text/css">
	.st0{fill:#1A91AD;}
	.st1{fill:#FFFFFF;}
	.st2{fill:#2B9CC9;}
</style>
<g>
	<path class="st0" d="M118.2,44.1v-5.5l-2,3.8h-0.7l-2.1-3.8v5.5h-0.7v-6.3h1l2.1,3.9l2.1-3.9h1v6.3H118.2z"/>
	<path class="st0" d="M123.7,42.9c0,0.2-0.1,0.3-0.1,0.4c-0.1,0.3-0.3,0.5-0.5,0.6c-0.2,0.1-0.5,0.2-0.7,0.2c-0.2,0-0.4,0-0.6,0
		c-0.2,0-0.4,0-0.7,0c-0.2,0-0.4-0.1-0.6-0.1c-0.2-0.1-0.4-0.2-0.5-0.3c-0.1-0.1-0.2-0.2-0.3-0.4c-0.1-0.2-0.1-0.3-0.1-0.6
		c0-0.3,0-0.5,0-0.8c0-0.3,0-0.6,0-0.9c0-0.3,0.1-0.5,0.2-0.7c0.1-0.2,0.2-0.4,0.3-0.5c0.1-0.1,0.3-0.2,0.5-0.3
		c0.2-0.1,0.4-0.1,0.6-0.1c0.1,0,0.2,0,0.3,0s0.2,0,0.4,0c0.1,0,0.2,0,0.3,0c0.1,0,0.2,0,0.3,0c0.4,0,0.7,0.2,1,0.5
		c0.2,0.3,0.3,0.7,0.3,1.1v1h-3.6c0,0.1,0,0.2,0,0.3c0,0.1,0,0.2,0,0.3c0,0.1,0,0.2,0,0.3c0,0.1,0.1,0.2,0.1,0.2
		c0.1,0.2,0.3,0.3,0.7,0.3c0.2,0,0.4,0,0.6,0c0.2,0,0.5,0,0.7,0c0.2,0,0.3,0,0.4-0.1c0.1,0,0.2-0.1,0.2-0.2c0.1-0.1,0.1-0.2,0.1-0.3
		c0-0.1,0-0.3,0-0.4h0.7C123.8,42.6,123.8,42.8,123.7,42.9z M123.1,41.2c0-0.1,0-0.2,0-0.2c0-0.2,0-0.3-0.1-0.5
		c-0.1-0.1-0.2-0.2-0.3-0.3c-0.1,0-0.2,0-0.3,0s-0.2,0-0.4,0c-0.1,0-0.3,0-0.4,0c-0.1,0-0.2,0-0.4,0c-0.1,0-0.3,0-0.4,0
		c-0.1,0-0.2,0.1-0.3,0.1c-0.1,0.1-0.1,0.2-0.2,0.3c0,0.1-0.1,0.3-0.1,0.4c0,0.1,0,0.1,0,0.2c0,0.1,0,0.1,0,0.2h2.9
		C123.1,41.4,123.1,41.3,123.1,41.2z"/>
	<path class="st0" d="M128,44.1v-0.3c-0.1,0.1-0.3,0.2-0.4,0.2c-0.2,0.1-0.3,0.1-0.5,0.1c-0.2,0-0.4,0-0.6,0c-0.2,0-0.4,0-0.5,0
		c-0.2,0-0.4-0.1-0.5-0.1c-0.2-0.1-0.3-0.2-0.4-0.3c-0.1-0.1-0.2-0.3-0.3-0.5c-0.1-0.2-0.1-0.4-0.1-0.6c0-0.3,0-0.6,0-0.8
		c0-0.3,0-0.5,0-0.8c0.1-0.9,0.5-1.4,1.3-1.5c0.2,0,0.4,0,0.6,0c0.2,0,0.4,0,0.6,0c0.2,0,0.4,0,0.6,0.1c0.2,0,0.3,0.1,0.5,0.2v-2
		h0.7v6.3H128z M128,40.5c-0.1-0.1-0.2-0.2-0.4-0.3c-0.2-0.1-0.3-0.1-0.5-0.1c-0.1,0-0.2,0-0.3,0c-0.1,0-0.2,0-0.3,0
		c-0.1,0-0.2,0-0.3,0c-0.1,0-0.2,0-0.3,0c-0.2,0-0.3,0-0.4,0.1c-0.1,0.1-0.2,0.1-0.2,0.2c-0.1,0.2-0.2,0.4-0.2,0.6
		c0,0.1,0,0.2,0,0.3c0,0.1,0,0.2,0,0.4c0,0.1,0,0.2,0,0.4c0,0.1,0,0.2,0,0.3c0,0.3,0.1,0.5,0.3,0.6c0.1,0.2,0.3,0.3,0.6,0.3
		c0.2,0,0.3,0,0.5,0c0.2,0,0.4,0,0.5,0c0.2,0,0.4-0.1,0.5-0.1c0.2-0.1,0.3-0.2,0.4-0.3V40.5z"/>
	<path class="st0" d="M129.8,38.7v-0.9h0.7v0.9H129.8z M129.8,44.1v-4.6h0.7v4.6H129.8z"/>
	<path class="st0" d="M135.7,44.1c-0.1,0-0.2,0-0.4-0.1c-0.1-0.1-0.2-0.1-0.3-0.2c-0.3,0.2-0.7,0.3-1.1,0.3c-0.2,0-0.4,0-0.6,0
		c-0.2,0-0.4,0-0.6,0c-0.4,0-0.6-0.1-0.8-0.4c-0.2-0.2-0.3-0.5-0.3-0.9c0-0.1,0-0.3,0-0.4c0-0.1,0-0.2,0-0.3c0-0.1,0.1-0.3,0.2-0.4
		c0.1-0.1,0.2-0.2,0.3-0.3c0.1-0.1,0.2-0.1,0.4-0.2s0.3-0.1,0.4-0.1h2v-0.4c0-0.2-0.1-0.4-0.2-0.5c-0.1-0.1-0.3-0.2-0.5-0.2
		c-0.1,0-0.2,0-0.3,0c-0.1,0-0.2,0-0.4,0s-0.2,0-0.3,0c-0.1,0-0.2,0-0.3,0c-0.2,0-0.3,0.1-0.4,0.1c-0.1,0.1-0.2,0.2-0.2,0.4v0.2
		h-0.7v-0.3c0-0.2,0-0.4,0.1-0.5c0.1-0.1,0.1-0.3,0.3-0.3c0.1-0.1,0.2-0.2,0.4-0.2c0.1,0,0.3-0.1,0.5-0.1c0.3,0,0.6,0,0.8,0
		c0.3,0,0.6,0,0.8,0c0.2,0,0.3,0.1,0.4,0.1c0.1,0.1,0.2,0.2,0.3,0.3c0.1,0.1,0.2,0.3,0.2,0.4c0.1,0.2,0.1,0.3,0.1,0.5v2.4
		c0,0.1,0,0.1,0.1,0.2c0,0,0.1,0.1,0.2,0.1h0.2v0.7H135.7z M134.9,41.9H133c-0.2,0-0.3,0-0.4,0.1c-0.1,0.1-0.2,0.2-0.2,0.4
		c0,0.1,0,0.2,0,0.3c0,0.1,0,0.2,0,0.2c0,0.4,0.2,0.5,0.6,0.6c0.2,0,0.3,0,0.5,0s0.3,0,0.5,0c0.2,0,0.4,0,0.5-0.1
		c0.2,0,0.3-0.1,0.5-0.2V41.9z"/>
	<path class="st0" d="M143.7,44.1l-0.4-1.7h-3.4l-0.5,1.7h-0.7l1.7-6.3h2.3l1.7,6.3H143.7z M142.2,38.4H141l-0.9,3.3h3L142.2,38.4z"
		/>
	<path class="st0" d="M148.9,42.3c0,0.2,0,0.5,0,0.8c0,0.2-0.1,0.4-0.2,0.5c-0.1,0.1-0.2,0.2-0.4,0.3c-0.1,0.1-0.3,0.1-0.4,0.1
		c-0.2,0-0.3,0-0.5,0c-0.2,0-0.4,0-0.6,0c-0.2,0-0.4,0-0.6,0c-0.4,0-0.7-0.1-0.9-0.3c-0.2-0.2-0.3-0.5-0.3-1v-0.4h0.7v0.5
		c0,0.2,0.1,0.3,0.2,0.4c0.1,0.1,0.2,0.1,0.4,0.1c0.1,0,0.2,0,0.3,0c0.1,0,0.2,0,0.4,0s0.2,0,0.4,0c0.1,0,0.2,0,0.3,0
		c0.2,0,0.4-0.1,0.5-0.1s0.2-0.2,0.2-0.3c0-0.1,0-0.1,0-0.2c0-0.1,0-0.1,0-0.2c0-0.2-0.1-0.3-0.1-0.4c-0.1-0.1-0.2-0.1-0.3-0.1
		c-0.1,0-0.3,0-0.5,0c-0.2,0-0.3,0-0.5,0s-0.3,0-0.4,0c-0.1,0-0.2,0-0.3,0c-0.4,0-0.6-0.1-0.8-0.2c-0.2-0.2-0.3-0.4-0.3-0.8
		c0-0.2,0-0.3,0-0.5c0-0.2,0.1-0.4,0.2-0.5c0.1-0.2,0.3-0.3,0.5-0.4c0.2-0.1,0.4-0.1,0.6-0.1c0.2,0,0.5,0,0.8,0c0.3,0,0.5,0,0.7,0
		c0.3,0,0.6,0.2,0.8,0.4c0.2,0.2,0.3,0.5,0.3,0.8V41h-0.7v-0.4c0-0.3-0.1-0.5-0.4-0.5c-0.1,0-0.2,0-0.4,0c-0.1,0-0.3,0-0.4,0
		c-0.1,0-0.3,0-0.4,0c-0.1,0-0.2,0-0.3,0c-0.3,0-0.4,0.1-0.5,0.3c-0.1,0.2-0.1,0.4-0.1,0.6c0,0.1,0.1,0.2,0.1,0.3
		c0.1,0.1,0.2,0.1,0.4,0.1c0.2,0,0.5,0,0.8,0c0.3,0,0.6,0,0.8,0c0.3,0,0.5,0.1,0.7,0.2C148.7,41.8,148.8,42,148.9,42.3z"/>
	<path class="st0" d="M153.5,42.3c0,0.2,0,0.5,0,0.8c0,0.2-0.1,0.4-0.2,0.5c-0.1,0.1-0.2,0.2-0.4,0.3c-0.1,0.1-0.3,0.1-0.4,0.1
		c-0.2,0-0.3,0-0.5,0c-0.2,0-0.4,0-0.6,0c-0.2,0-0.4,0-0.6,0c-0.4,0-0.7-0.1-0.9-0.3c-0.2-0.2-0.3-0.5-0.3-1v-0.4h0.7v0.5
		c0,0.2,0.1,0.3,0.2,0.4c0.1,0.1,0.2,0.1,0.4,0.1c0.1,0,0.2,0,0.3,0c0.1,0,0.2,0,0.4,0s0.2,0,0.4,0c0.1,0,0.2,0,0.3,0
		c0.2,0,0.4-0.1,0.5-0.1s0.2-0.2,0.2-0.3c0-0.1,0-0.1,0-0.2c0-0.1,0-0.1,0-0.2c0-0.2-0.1-0.3-0.1-0.4c-0.1-0.1-0.2-0.1-0.3-0.1
		c-0.1,0-0.3,0-0.5,0c-0.2,0-0.3,0-0.5,0s-0.3,0-0.4,0c-0.1,0-0.2,0-0.3,0c-0.4,0-0.6-0.1-0.8-0.2c-0.2-0.2-0.3-0.4-0.3-0.8
		c0-0.2,0-0.3,0-0.5c0-0.2,0.1-0.4,0.2-0.5c0.1-0.2,0.3-0.3,0.5-0.4c0.2-0.1,0.4-0.1,0.6-0.1c0.2,0,0.5,0,0.8,0c0.3,0,0.5,0,0.7,0
		c0.3,0,0.6,0.2,0.8,0.4c0.2,0.2,0.3,0.5,0.3,0.8V41h-0.7v-0.4c0-0.3-0.1-0.5-0.4-0.5c-0.1,0-0.2,0-0.4,0c-0.1,0-0.3,0-0.4,0
		c-0.1,0-0.3,0-0.4,0c-0.1,0-0.2,0-0.3,0c-0.3,0-0.4,0.1-0.5,0.3c-0.1,0.2-0.1,0.4-0.1,0.6c0,0.1,0.1,0.2,0.1,0.3
		c0.1,0.1,0.2,0.1,0.4,0.1c0.2,0,0.5,0,0.8,0c0.3,0,0.6,0,0.8,0c0.3,0,0.5,0.1,0.7,0.2C153.3,41.8,153.4,42,153.5,42.3z"/>
	<path class="st0" d="M158.3,42.9c0,0.2-0.1,0.3-0.1,0.4c-0.1,0.3-0.3,0.5-0.5,0.6c-0.2,0.1-0.5,0.2-0.7,0.2c-0.2,0-0.4,0-0.6,0
		c-0.2,0-0.4,0-0.7,0c-0.2,0-0.4-0.1-0.6-0.1c-0.2-0.1-0.4-0.2-0.5-0.3c-0.1-0.1-0.2-0.2-0.3-0.4c-0.1-0.2-0.1-0.3-0.1-0.6
		c0-0.3,0-0.5,0-0.8c0-0.3,0-0.6,0-0.9c0-0.3,0.1-0.5,0.2-0.7c0.1-0.2,0.2-0.4,0.3-0.5c0.1-0.1,0.3-0.2,0.5-0.3
		c0.2-0.1,0.4-0.1,0.6-0.1c0.1,0,0.2,0,0.3,0c0.1,0,0.2,0,0.4,0c0.1,0,0.2,0,0.3,0c0.1,0,0.2,0,0.3,0c0.4,0,0.7,0.2,1,0.5
		c0.2,0.3,0.3,0.7,0.3,1.1v1h-3.6c0,0.1,0,0.2,0,0.3c0,0.1,0,0.2,0,0.3c0,0.1,0,0.2,0,0.3c0,0.1,0.1,0.2,0.1,0.2
		c0.1,0.2,0.3,0.3,0.7,0.3c0.2,0,0.4,0,0.6,0c0.2,0,0.5,0,0.7,0c0.2,0,0.3,0,0.4-0.1c0.1,0,0.2-0.1,0.2-0.2c0.1-0.1,0.1-0.2,0.1-0.3
		c0-0.1,0-0.3,0-0.4h0.7C158.3,42.6,158.3,42.8,158.3,42.9z M157.6,41.2c0-0.1,0-0.2,0-0.2c0-0.2,0-0.3-0.1-0.5
		c-0.1-0.1-0.2-0.2-0.3-0.3c-0.1,0-0.2,0-0.3,0s-0.2,0-0.4,0c-0.1,0-0.3,0-0.4,0c-0.1,0-0.2,0-0.4,0c-0.1,0-0.3,0-0.4,0
		c-0.1,0-0.2,0.1-0.3,0.1c-0.1,0.1-0.1,0.2-0.2,0.3c0,0.1-0.1,0.3-0.1,0.4c0,0.1,0,0.1,0,0.2c0,0.1,0,0.1,0,0.2h2.9
		C157.6,41.4,157.6,41.3,157.6,41.2z"/>
	<path class="st0" d="M161,44.1c-0.2,0-0.4,0-0.5-0.1c-0.1-0.1-0.3-0.2-0.4-0.3c-0.1-0.1-0.2-0.3-0.2-0.5c-0.1-0.2-0.1-0.4-0.1-0.6
		v-2.5h-0.9v-0.7h0.9v-1.7h0.7v1.7h1.6v0.7h-1.6v2.7c0,0.1,0,0.2,0.1,0.3c0,0.1,0.1,0.1,0.2,0.2c0.1,0,0.1,0.1,0.2,0.1
		c0.1,0,0.2,0,0.2,0h0.9v0.7H161z"/>
	<path class="st0" d="M170.7,44.1v-5.5l-2,3.8H168l-2.1-3.8v5.5h-0.7v-6.3h1l2.1,3.9l2.1-3.9h1v6.3H170.7z"/>
	<path class="st0" d="M176.2,44.1c-0.1,0-0.2,0-0.4-0.1c-0.1-0.1-0.2-0.1-0.3-0.2c-0.3,0.2-0.7,0.3-1.1,0.3c-0.2,0-0.4,0-0.6,0
		c-0.2,0-0.4,0-0.6,0c-0.4,0-0.6-0.1-0.8-0.4c-0.2-0.2-0.3-0.5-0.3-0.9c0-0.1,0-0.3,0-0.4c0-0.1,0-0.2,0-0.3c0-0.1,0.1-0.3,0.2-0.4
		c0.1-0.1,0.2-0.2,0.3-0.3c0.1-0.1,0.2-0.1,0.4-0.2s0.3-0.1,0.4-0.1h2v-0.4c0-0.2-0.1-0.4-0.2-0.5c-0.1-0.1-0.3-0.2-0.5-0.2
		c-0.1,0-0.2,0-0.3,0c-0.1,0-0.2,0-0.4,0s-0.2,0-0.3,0c-0.1,0-0.2,0-0.3,0c-0.2,0-0.3,0.1-0.4,0.1c-0.1,0.1-0.2,0.2-0.2,0.4v0.2
		h-0.7v-0.3c0-0.2,0-0.4,0.1-0.5c0.1-0.1,0.1-0.3,0.3-0.3c0.1-0.1,0.2-0.2,0.4-0.2c0.1,0,0.3-0.1,0.5-0.1c0.3,0,0.6,0,0.8,0
		c0.3,0,0.6,0,0.8,0c0.2,0,0.3,0.1,0.4,0.1c0.1,0.1,0.2,0.2,0.3,0.3c0.1,0.1,0.2,0.3,0.2,0.4c0.1,0.2,0.1,0.3,0.1,0.5v2.4
		c0,0.1,0,0.1,0.1,0.2c0,0,0.1,0.1,0.2,0.1h0.2v0.7H176.2z M175.3,41.9h-1.9c-0.2,0-0.3,0-0.4,0.1c-0.1,0.1-0.2,0.2-0.2,0.4
		c0,0.1,0,0.2,0,0.3c0,0.1,0,0.2,0,0.2c0,0.4,0.2,0.5,0.6,0.6c0.2,0,0.3,0,0.5,0s0.3,0,0.5,0c0.2,0,0.4,0,0.5-0.1
		c0.2,0,0.3-0.1,0.5-0.2V41.9z"/>
	<path class="st0" d="M180.4,44.1v-3.2c0-0.2-0.1-0.4-0.2-0.6c-0.1-0.1-0.3-0.2-0.5-0.2c-0.2,0-0.3,0-0.5,0c-0.2,0-0.4,0-0.5,0
		c-0.3,0-0.6,0.2-0.9,0.5v3.5H177v-4.6h0.7v0.4c0.2-0.1,0.3-0.2,0.5-0.3c0.2-0.1,0.4-0.1,0.6-0.1c0.2,0,0.4,0,0.6,0
		c0.2,0,0.4,0,0.6,0c0.2,0,0.3,0.1,0.4,0.1c0.1,0.1,0.2,0.2,0.3,0.3c0.1,0.1,0.2,0.3,0.2,0.4c0.1,0.2,0.1,0.3,0.1,0.5v3.3H180.4z"/>
	<path class="st0" d="M185.9,44.1c-0.1,0-0.2,0-0.4-0.1c-0.1-0.1-0.2-0.1-0.3-0.2c-0.3,0.2-0.7,0.3-1.1,0.3c-0.2,0-0.4,0-0.6,0
		c-0.2,0-0.4,0-0.6,0c-0.4,0-0.6-0.1-0.8-0.4c-0.2-0.2-0.3-0.5-0.3-0.9c0-0.1,0-0.3,0-0.4c0-0.1,0-0.2,0-0.3c0-0.1,0.1-0.3,0.2-0.4
		c0.1-0.1,0.2-0.2,0.3-0.3s0.2-0.1,0.4-0.2s0.3-0.1,0.4-0.1h2v-0.4c0-0.2-0.1-0.4-0.2-0.5c-0.1-0.1-0.3-0.2-0.5-0.2
		c-0.1,0-0.2,0-0.3,0c-0.1,0-0.2,0-0.4,0c-0.1,0-0.2,0-0.3,0c-0.1,0-0.2,0-0.3,0c-0.2,0-0.3,0.1-0.4,0.1c-0.1,0.1-0.2,0.2-0.2,0.4
		v0.2h-0.7v-0.3c0-0.2,0-0.4,0.1-0.5c0.1-0.1,0.1-0.3,0.3-0.3c0.1-0.1,0.2-0.2,0.4-0.2c0.1,0,0.3-0.1,0.5-0.1c0.3,0,0.6,0,0.8,0
		c0.3,0,0.6,0,0.8,0c0.2,0,0.3,0.1,0.4,0.1c0.1,0.1,0.2,0.2,0.3,0.3c0.1,0.1,0.2,0.3,0.2,0.4c0.1,0.2,0.1,0.3,0.1,0.5v2.4
		c0,0.1,0,0.1,0.1,0.2c0,0,0.1,0.1,0.2,0.1h0.2v0.7H185.9z M185,41.9h-1.9c-0.2,0-0.3,0-0.4,0.1c-0.1,0.1-0.2,0.2-0.2,0.4
		c0,0.1,0,0.2,0,0.3c0,0.1,0,0.2,0,0.2c0,0.4,0.2,0.5,0.6,0.6c0.2,0,0.3,0,0.5,0s0.3,0,0.5,0c0.2,0,0.4,0,0.5-0.1
		c0.2,0,0.3-0.1,0.5-0.2V41.9z"/>
	<path class="st0" d="M190.8,44.9c-0.1,0.2-0.1,0.4-0.3,0.5c-0.1,0.1-0.3,0.2-0.4,0.3c-0.2,0.1-0.4,0.1-0.7,0.1c-0.3,0-0.5,0-0.8,0
		c-0.3,0-0.6,0-0.8,0c-0.2,0-0.3,0-0.4-0.1c-0.1,0-0.2-0.1-0.3-0.2c-0.1-0.1-0.2-0.2-0.2-0.3c-0.1-0.1-0.1-0.3-0.1-0.5v-0.5h0.7v0.5
		c0,0.1,0,0.2,0.1,0.2c0,0.1,0.1,0.1,0.1,0.1c0.1,0,0.1,0.1,0.2,0.1c0.1,0,0.1,0,0.2,0c0.2,0,0.4,0,0.6,0c0.2,0,0.4,0,0.6,0
		c0.1,0,0.3,0,0.4,0c0.1,0,0.2-0.1,0.3-0.1c0.1-0.1,0.2-0.1,0.2-0.2c0.1-0.1,0.1-0.2,0.1-0.4v-0.6c-0.1,0.1-0.3,0.2-0.4,0.2
		c-0.2,0-0.3,0.1-0.5,0.1c-0.2,0-0.3,0-0.5,0c-0.2,0-0.3,0-0.5,0c-0.6,0-1-0.1-1.2-0.4c-0.3-0.3-0.4-0.7-0.4-1.4c0-0.2,0-0.5,0-0.7
		c0-0.2,0-0.5,0-0.7c0.1-0.5,0.2-0.9,0.5-1.1c0.3-0.2,0.6-0.4,1.1-0.4c0.2,0,0.4,0,0.5,0c0.2,0,0.4,0,0.5,0c0.2,0,0.3,0,0.5,0.1
		c0.2,0,0.3,0.1,0.4,0.2v-0.3h0.7v4.8C190.9,44.5,190.9,44.7,190.8,44.9z M190.3,40.6c-0.1-0.2-0.3-0.3-0.5-0.3
		c-0.2-0.1-0.4-0.1-0.5-0.1h-0.8c-0.3,0-0.5,0.1-0.7,0.2c-0.2,0.1-0.3,0.3-0.3,0.7c0,0.2,0,0.5,0,0.7c0,0.1,0,0.2,0,0.4
		c0,0.1,0,0.2,0,0.4c0,0.1,0,0.3,0,0.4c0,0.1,0.1,0.2,0.1,0.3c0.1,0.1,0.1,0.2,0.2,0.2s0.2,0.1,0.4,0.1c0.2,0,0.4,0,0.6,0
		c0.2,0,0.4,0,0.6,0c0,0,0.1,0,0.2,0c0.1,0,0.2,0,0.3-0.1c0.1,0,0.2-0.1,0.3-0.1c0.1-0.1,0.1-0.1,0.2-0.2V40.6z"/>
	<path class="st0" d="M195.8,42.9c0,0.2-0.1,0.3-0.1,0.4c-0.1,0.3-0.3,0.5-0.5,0.6c-0.2,0.1-0.5,0.2-0.7,0.2c-0.2,0-0.4,0-0.6,0
		c-0.2,0-0.4,0-0.7,0c-0.2,0-0.4-0.1-0.6-0.1c-0.2-0.1-0.4-0.2-0.5-0.3c-0.1-0.1-0.2-0.2-0.3-0.4c-0.1-0.2-0.1-0.3-0.1-0.6
		c0-0.3,0-0.5,0-0.8c0-0.3,0-0.6,0-0.9c0-0.3,0.1-0.5,0.2-0.7c0.1-0.2,0.2-0.4,0.3-0.5c0.1-0.1,0.3-0.2,0.5-0.3
		c0.2-0.1,0.4-0.1,0.6-0.1c0.1,0,0.2,0,0.3,0c0.1,0,0.2,0,0.4,0c0.1,0,0.2,0,0.3,0c0.1,0,0.2,0,0.3,0c0.4,0,0.7,0.2,1,0.5
		c0.2,0.3,0.3,0.7,0.3,1.1v1h-3.6c0,0.1,0,0.2,0,0.3c0,0.1,0,0.2,0,0.3c0,0.1,0,0.2,0,0.3c0,0.1,0.1,0.2,0.1,0.2
		c0.1,0.2,0.3,0.3,0.7,0.3c0.2,0,0.4,0,0.6,0c0.2,0,0.5,0,0.7,0c0.2,0,0.3,0,0.4-0.1c0.1,0,0.2-0.1,0.2-0.2c0.1-0.1,0.1-0.2,0.1-0.3
		c0-0.1,0-0.3,0-0.4h0.7C195.8,42.6,195.8,42.8,195.8,42.9z M195.1,41.2c0-0.1,0-0.2,0-0.2c0-0.2,0-0.3-0.1-0.5
		c-0.1-0.1-0.2-0.2-0.3-0.3c-0.1,0-0.2,0-0.3,0s-0.2,0-0.4,0c-0.1,0-0.3,0-0.4,0c-0.1,0-0.2,0-0.4,0c-0.1,0-0.3,0-0.4,0
		c-0.1,0-0.2,0.1-0.3,0.1c-0.1,0.1-0.1,0.2-0.2,0.3c0,0.1-0.1,0.3-0.1,0.4c0,0.1,0,0.1,0,0.2c0,0.1,0,0.1,0,0.2h2.9
		C195.1,41.4,195.1,41.3,195.1,41.2z"/>
	<path class="st0" d="M201.7,44.1v-3.3c0-0.2,0-0.3-0.1-0.4c-0.1-0.1-0.2-0.2-0.3-0.2c-0.1,0-0.3,0-0.4,0c-0.1,0-0.3,0-0.4,0.1
		c-0.1,0-0.1,0.1-0.2,0.1c-0.1,0.1-0.1,0.1-0.2,0.2s-0.1,0.1-0.1,0.2c0,0.1-0.1,0.2-0.1,0.2v3.2h-0.7v-3.2c0-0.2,0-0.4-0.1-0.5
		c-0.1-0.1-0.2-0.2-0.3-0.2c-0.1,0-0.3-0.1-0.5-0.1c-0.2,0-0.3,0-0.5,0.1c-0.2,0-0.3,0.1-0.4,0.2s-0.2,0.2-0.2,0.3v3.4h-0.7v-4.6
		h0.7v0.3c0.1-0.1,0.3-0.2,0.4-0.3c0.1,0,0.3-0.1,0.5-0.1c0.1,0,0.2,0,0.4,0c0.1,0,0.2,0,0.4,0c0.2,0,0.3,0.1,0.4,0.2
		c0.1,0.1,0.2,0.2,0.3,0.4c0.1-0.2,0.2-0.3,0.4-0.4c0.1-0.1,0.3-0.1,0.5-0.2c0.1,0,0.2,0,0.4,0c0.1,0,0.3,0,0.4,0
		c0.2,0,0.3,0.1,0.5,0.1c0.1,0.1,0.3,0.2,0.4,0.3c0.1,0.1,0.2,0.2,0.2,0.4c0.1,0.2,0.1,0.3,0.1,0.5v3.3H201.7z"/>
	<path class="st0" d="M207.2,42.9c0,0.2-0.1,0.3-0.1,0.4c-0.1,0.3-0.3,0.5-0.5,0.6c-0.2,0.1-0.5,0.2-0.7,0.2c-0.2,0-0.4,0-0.6,0
		c-0.2,0-0.4,0-0.7,0c-0.2,0-0.4-0.1-0.6-0.1c-0.2-0.1-0.4-0.2-0.5-0.3c-0.1-0.1-0.2-0.2-0.3-0.4c-0.1-0.2-0.1-0.3-0.1-0.6
		c0-0.3,0-0.5,0-0.8c0-0.3,0-0.6,0-0.9c0-0.3,0.1-0.5,0.2-0.7c0.1-0.2,0.2-0.4,0.3-0.5c0.1-0.1,0.3-0.2,0.5-0.3
		c0.2-0.1,0.4-0.1,0.6-0.1c0.1,0,0.2,0,0.3,0c0.1,0,0.2,0,0.4,0c0.1,0,0.2,0,0.3,0c0.1,0,0.2,0,0.3,0c0.4,0,0.7,0.2,1,0.5
		c0.2,0.3,0.3,0.7,0.3,1.1v1h-3.6c0,0.1,0,0.2,0,0.3c0,0.1,0,0.2,0,0.3c0,0.1,0,0.2,0,0.3c0,0.1,0.1,0.2,0.1,0.2
		c0.1,0.2,0.3,0.3,0.7,0.3c0.2,0,0.4,0,0.6,0c0.2,0,0.5,0,0.7,0c0.2,0,0.3,0,0.4-0.1c0.1,0,0.2-0.1,0.2-0.2c0.1-0.1,0.1-0.2,0.1-0.3
		c0-0.1,0-0.3,0-0.4h0.7C207.2,42.6,207.2,42.8,207.2,42.9z M206.5,41.2c0-0.1,0-0.2,0-0.2c0-0.2,0-0.3-0.1-0.5
		c-0.1-0.1-0.2-0.2-0.3-0.3c-0.1,0-0.2,0-0.3,0s-0.2,0-0.4,0c-0.1,0-0.3,0-0.4,0c-0.1,0-0.2,0-0.4,0c-0.1,0-0.3,0-0.4,0
		c-0.1,0-0.2,0.1-0.3,0.1c-0.1,0.1-0.1,0.2-0.2,0.3c0,0.1-0.1,0.3-0.1,0.4c0,0.1,0,0.1,0,0.2c0,0.1,0,0.1,0,0.2h2.9
		C206.5,41.4,206.5,41.3,206.5,41.2z"/>
	<path class="st0" d="M211.3,44.1v-3.2c0-0.2-0.1-0.4-0.2-0.6c-0.1-0.1-0.3-0.2-0.5-0.2c-0.2,0-0.3,0-0.5,0c-0.2,0-0.4,0-0.5,0
		c-0.3,0-0.6,0.2-0.9,0.5v3.5h-0.7v-4.6h0.7v0.4c0.2-0.1,0.3-0.2,0.5-0.3c0.2-0.1,0.4-0.1,0.6-0.1c0.2,0,0.4,0,0.6,0
		c0.2,0,0.4,0,0.6,0c0.2,0,0.3,0.1,0.4,0.1c0.1,0.1,0.2,0.2,0.3,0.3c0.1,0.1,0.2,0.3,0.2,0.4c0.1,0.2,0.1,0.3,0.1,0.5v3.3H211.3z"/>
	<path class="st0" d="M214.7,44.1c-0.2,0-0.4,0-0.5-0.1c-0.1-0.1-0.3-0.2-0.4-0.3c-0.1-0.1-0.2-0.3-0.2-0.5
		c-0.1-0.2-0.1-0.4-0.1-0.6v-2.5h-0.9v-0.7h0.9v-1.7h0.7v1.7h1.6v0.7h-1.6v2.7c0,0.1,0,0.2,0.1,0.3c0,0.1,0.1,0.1,0.2,0.2
		c0.1,0,0.1,0.1,0.2,0.1c0.1,0,0.2,0,0.2,0h0.9v0.7H214.7z"/>
</g>
<g>
	<g>
		<path class="st1" d="M91.5,31.6c-0.1,0.6-0.4,1-0.9,1.4c-0.2,0.2-0.4,0.4-0.7,0.5c-0.2,0.1-0.5,0.2-0.8,0.2h-0.5v0.6h-1.3
			c-0.4,0-0.8-0.1-1.3-0.3c-0.4-0.2-0.8-0.4-1-0.7l-1.6-1.9L82,33.1c-0.7,0.8-1.5,1.2-2.5,1.2h-1v-1.8h0.7c0.3,0,0.5-0.1,0.7-0.2
			c0.2-0.1,0.4-0.3,0.5-0.5l1.6-2l-2.3-2.9V15.6h-1.3v-1.9h1.3v-3h2.1v3h2.9v-3h2.1v3h0.9v1.9h-0.9v11.5l-2.1,2.6l1.9,2.2
			c0.1,0.1,0.2,0.2,0.4,0.3c0.2,0.1,0.3,0.2,0.5,0.2h0.3v-0.6h0.8c0.2,0,0.3-0.1,0.5-0.2c0.2-0.1,0.3-0.3,0.3-0.5l1.2-4.4h2.1
			L91.5,31.6z M84.8,15.6h-2.9v10.7l1.6,1.8l1.4-1.7V15.6z M96.5,25.7v8.6h-2.1v-8.6h-6.5l0-1.9h6.5v-1.7h-4.6v-7.4h-1.4v-1.9h1.4
			v-2.2H92v2.2h7v-2.2h2.1v2.2h1.6v1.9h-1.6v4.4c0,0.8-0.3,1.5-0.8,2c-0.3,0.3-0.6,0.5-1,0.7c-0.4,0.2-0.8,0.3-1.2,0.3h-1.6v1.7h6.3
			v1.9H96.5z M99,14.8h-7v1.7h7V14.8z M99,18.4h-7v1.9h5.7c0.3,0,0.6-0.1,0.9-0.4c0.3-0.3,0.4-0.5,0.4-0.9V18.4z M101.9,33.7
			c-0.5,0-1-0.2-1.5-0.5c-0.5-0.3-0.8-0.8-1-1.4l-1.4-5h2.2l1.2,4.3c0.1,0.2,0.2,0.3,0.4,0.5c0.2,0.1,0.4,0.2,0.5,0.2h0.7v1.9H101.9
			z"/>
	</g>
	<g>
		<path class="st1" d="M115.1,20.9v-1.2h-6.1v1.2H107V18h0.8V11h8.6V18h0.8v2.9H115.1z M116.4,32.4c-0.1,0.3-0.3,0.6-0.5,0.9
			c-0.3,0.3-0.6,0.5-0.9,0.7c-0.3,0.2-0.7,0.3-1.1,0.3h-1.7v-1.7h1.4c0.3,0,0.6-0.1,0.8-0.3c0.2-0.2,0.3-0.5,0.3-0.8v-1.2h-4.9v14.2
			h-2V21.5h8.9v9.9C116.6,31.7,116.5,32.1,116.4,32.4z M114.6,23.2h-4.9V25h4.9V23.2z M114.6,26.7h-4.9v1.8h4.9V26.7z M114.4,12.8
			h-4.6V18h1.3v-3.7h3.4V12.8z M114.4,15.9h-1.7v2h1.7V15.9z M117.3,34.2v-1.7h3.3l-1.2-2.2h2.4l1.1,2.2h2.5l1.1-2.2h2.3l-1,2.2h2.9
			v1.7H117.3z M117.5,23.9v-1.7h13.2v1.7H117.5z M129.3,20.4c-0.5,0.5-1.2,0.8-2,0.8h-9.2v-9h3.4v-1.5h1.7v1.5h1.7v-1.5h1.7v1.5h3.4
			v6.2C130,19.2,129.8,19.9,129.3,20.4z M129,29.1c-0.5,0.4-1.1,0.7-1.9,0.7h-8.6v-4.7h11.3v2.1C129.7,28,129.4,28.6,129,29.1z
			 M121.5,13.7h-1.7V16h1.7V13.7z M121.5,17.4h-1.7v2.3h1.7V17.4z M127.6,26.7h-7.2v1.4h6.4c0.2,0,0.4-0.1,0.5-0.3
			c0.1-0.2,0.2-0.4,0.2-0.6V26.7z M124.9,13.7h-1.7V16h1.7V13.7z M124.9,17.4h-1.7v2.3h1.7V17.4z M128.3,13.7h-1.6V16h1.6V13.7z
			 M128.3,17.4h-1.6v2.3h0.4c0.3,0,0.6-0.1,0.8-0.4c0.2-0.3,0.4-0.5,0.4-0.9V17.4z"/>
	</g>
	<g>
		<path class="st1" d="M140,17.5c-0.4,0.5-0.8,0.9-1.3,1.2c-0.5,0.3-1.1,0.4-1.7,0.4H135v-1.7h1.6c0.3,0,0.6-0.1,1-0.2
			c0.3-0.1,0.6-0.4,0.8-0.6l1.3-1.8h2.3L140,17.5z M155.2,34.2c-0.4,0-0.8-0.1-1.2-0.2c-0.4-0.1-0.7-0.3-1-0.5l-3.1-2.3h-5.9
			l-2.8,2.2c-0.1,0.1-0.3,0.2-0.6,0.3c-0.2,0.1-0.5,0.2-0.7,0.3c-0.3,0.1-0.5,0.1-0.8,0.2c-0.3,0-0.5,0.1-0.7,0.1H135v-1.7h3
			c0.3,0,0.6-0.1,0.9-0.2c0.3-0.1,0.6-0.3,0.9-0.5l0.9-0.7h-4.2V20.2h20.7v7.3c0,0.5-0.1,1-0.3,1.5c-0.2,0.4-0.4,0.8-0.8,1.2
			c-0.3,0.3-0.7,0.6-1.2,0.8c-0.5,0.2-1,0.3-1.5,0.3H153l1.2,0.9c0.2,0.1,0.4,0.2,0.7,0.3c0.2,0.1,0.5,0.1,0.8,0.1h3.2v1.7H155.2z
			 M140.6,13.9c-0.6,0-1.1-0.1-1.7-0.2c-0.3-0.1-0.6-0.2-0.9-0.4c-0.3-0.1-0.5-0.3-0.7-0.5l-2.3-2.1h2.8l1.3,1
			c0.2,0.1,0.4,0.3,0.7,0.4c0.3,0.1,0.6,0.2,0.9,0.2h1.4v1.7H140.6z M155.1,21.8h-16.5v1.6h16.5V21.8z M155.1,24.9h-16.5v1.6h16.5
			V24.9z M138.6,27.9v1.7h14.3c0.5,0,1-0.2,1.4-0.5c0.4-0.3,0.7-0.7,0.8-1.2H138.6z M156.2,19.1c-0.6,0-1.1-0.1-1.6-0.2
			c-0.6-0.1-1.1-0.3-1.5-0.6l-2.9-1.7l-1.4,1.1c-0.7,0.5-1.3,0.9-2,1c-0.6,0.2-1.3,0.3-2,0.3h-2.5v-1.6h2.6c0.3,0,0.7,0,1.1-0.1
			c0.4-0.1,0.8-0.3,1.1-0.5l2.9-2.5h2.8l-1.7,1.5h1.4l2,1.1c0.6,0.3,1.3,0.5,2.2,0.5h2.3v1.6H156.2z M156,15.8v-2.2h-8.7l-0.5,0.8
			c-0.1,0.2-0.3,0.4-0.5,0.5c-0.2,0.2-0.4,0.3-0.6,0.4c-0.3,0.1-0.6,0.3-0.9,0.4c-0.3,0.1-0.6,0.2-0.8,0.2h-1.2v-1.7h0.8
			c0.1,0,0.2,0,0.4-0.1c0.1,0,0.3-0.1,0.4-0.1c0.1-0.1,0.3-0.1,0.4-0.2c0.1-0.1,0.2-0.2,0.3-0.3l1.7-2.8h2.2l-0.7,1.3h9.8v3.8H156z"
			/>
	</g>
	<g>
		<path class="st1" d="M166.6,22.6v9.2c0,0.4-0.1,0.7-0.2,1c-0.1,0.3-0.3,0.6-0.5,0.8c-0.5,0.5-1,0.7-1.7,0.7H163v-1.9h0.7
			c0.2,0,0.3-0.1,0.5-0.2c0.2-0.2,0.3-0.4,0.3-0.6V20.8H187v1.8H166.6z M181.2,19.7c-0.6,0-1.3,0-1.9-0.2c-0.6-0.1-1.2-0.2-1.7-0.4
			l-2.6-0.9l-2.7,1c-0.2,0.1-0.4,0.1-0.7,0.2c-0.3,0.1-0.6,0.1-0.9,0.2c-0.3,0-0.7,0.1-1,0.1c-0.3,0-0.6,0-0.9,0h-5.4v-1.7h5.4
			c0.3,0,0.6,0,1-0.1c0.4,0,0.8-0.1,1-0.1l1.5-0.4l-6.6-2.3h5.4l3.8,1.3l3.6-1.3h5.1l-6,2.2l1.3,0.4c0.3,0.1,0.7,0.1,1.2,0.2
			c0.5,0,0.9,0,1.5,0h5.1v1.7H181.2z M163.5,14.4v-1.8h10.5v-1.8h2.2v1.8h10.5v1.8H163.5z M167.6,34.3v-1.7h8.6v-2.2h-7v-1.7h7v-1.9
			h-4.8c-0.1,0.2-0.3,0.4-0.5,0.5c-0.2,0.1-0.4,0.3-0.6,0.4c-0.4,0.2-0.9,0.3-1.4,0.3h-1.4v-1.7h1.1c0.5,0,0.8-0.2,1.1-0.7l1-1.7
			h2.2l-0.6,1.2h3.8v-1.6h2.1v1.6h8v1.7h-8v1.9h7.1v1.7h-7.1v2.2h8.8v1.7H167.6z"/>
	</g>
	<g>
		<path class="st1" d="M198.1,13.7c0.2-0.1,0.3-0.3,0.4-0.4l0.4-0.6h0.7l0.9,1c0.1,0.1,0.2,0.2,0.3,0.2c0.1,0.1,0.2,0.1,0.4,0.2
			c0.1,0,0.3,0.1,0.4,0.1c0.1,0,0.2,0,0.3,0h0.6v-0.9H202c-0.1,0-0.2,0-0.4-0.1c-0.1,0-0.2-0.1-0.3-0.2l-0.4-0.4h1.5v-0.9h-3
			l0.3-0.5h-1.3l-0.9,1.5c-0.1,0.1-0.1,0.2-0.3,0.2c-0.1,0.1-0.2,0.1-0.3,0.1h-0.4c-0.2,0-0.3,0-0.4-0.1l-0.2-0.3h1.3v-0.9h-2.7
			l0.3-0.5h-1.3l-1,1.7c-0.1,0.1-0.1,0.2-0.3,0.2c-0.1,0.1-0.2,0.1-0.3,0.1h-0.4v0.9h0.7c0.2,0,0.5-0.1,0.7-0.2
			c0.3-0.1,0.4-0.3,0.6-0.5l0.5-0.8h0.6l0.8,0.9c0.1,0.1,0.1,0.1,0.2,0.2c0.1,0.1,0.2,0.1,0.3,0.1c0.1,0,0.2,0.1,0.3,0.1
			c0.1,0,0.2,0,0.3,0h0.1v0.3h-4.7V16h0.9v5.5h7.6c0.2,0,0.4,0,0.6-0.1c0.2-0.1,0.3-0.2,0.5-0.3c0.1-0.1,0.2-0.3,0.3-0.4
			c0.1-0.2,0.1-0.3,0.1-0.5v-1.2h-7.9v-0.5h6.5c0.1,0,0.3,0,0.4-0.1c0.1-0.1,0.3-0.2,0.4-0.3c0.1-0.1,0.2-0.2,0.3-0.4
			c0.1-0.1,0.1-0.3,0.1-0.4V16h0.9v-1.6h-4.7V14C197.8,13.9,197.9,13.9,198.1,13.7z M200.3,16.9v0.2c0,0.1,0,0.2-0.1,0.2
			c-0.1,0.1-0.2,0.1-0.3,0.1h-6.2v-0.5H200.3z M200.4,19.9v0.2c0,0.1,0,0.2-0.1,0.3c-0.1,0.1-0.2,0.1-0.3,0.1h-6.3v-0.7H200.4z
			 M201.1,15.3V16h-8.2v-0.6H201.1z"/>
		<g>
			<polygon class="st1" points="206.4,12.4 207.7,12.4 207.7,11.4 203.9,11.4 203.9,12.4 205.2,12.4 205.2,15.7 204.1,15.7 
				204.1,16.7 205.2,16.7 205.2,20.4 203.9,20.4 203.9,21.5 207.6,21.5 207.6,20.4 206.4,20.4 206.4,16.7 207.6,16.7 207.6,15.7 
				206.4,15.7 			"/>
			<path class="st1" d="M211.7,20.4v-1.1h2.8v-1h-2.8v-1.1h0.9c0.2,0,0.5,0,0.7-0.1c0.2-0.1,0.4-0.2,0.6-0.4
				c0.2-0.2,0.3-0.4,0.4-0.6c0.1-0.2,0.1-0.4,0.1-0.7v-4.1h-6.6v5.8h2.7v1.1h-2.7v1h2.7v1.1h-2.9v1h7.1v-1H211.7z M213.3,14.8v0.7
				c0,0.1,0,0.1-0.1,0.2c0,0.1-0.1,0.1-0.2,0.2c-0.1,0.1-0.2,0.1-0.2,0.2c-0.1,0-0.1,0.1-0.2,0.1h-0.9v-1.4H213.3z M213.3,12.4v1.4
				h-1.5v-1.4H213.3z M210.5,14.8v1.4H209v-1.4H210.5z M210.5,12.4v1.4H209v-1.4H210.5z"/>
		</g>
		<g>
			<path class="st1" d="M193.8,30.9l-1,1.7c-0.1,0.2-0.3,0.3-0.7,0.3h-0.6v1h0.7c0.4,0,0.7-0.1,1-0.2c0.2-0.1,0.5-0.4,0.7-0.7
				l1.3-2.1H193.8z"/>
			<path class="st1" d="M201.8,33c-0.1,0-0.2,0-0.3-0.1c-0.1-0.1-0.2-0.1-0.2-0.2l-1-1.8h-1.4l1.2,2.1c0.2,0.3,0.4,0.6,0.7,0.7
				c0.1,0.1,0.3,0.2,0.5,0.2c0.2,0,0.3,0.1,0.5,0.1h0.8v-1H201.8z"/>
			<path class="st1" d="M201.9,30.6c0.1-0.1,0.2-0.2,0.2-0.3c0-0.1,0.1-0.2,0-0.4c0-0.1-0.1-0.2-0.2-0.4l-1.5-1.2h-1.8l1.6,1.3h-4.4
				l5.4-3.4h-2.1l-1.6,1h-3.1l2.6-1.6h3.8c0.2,0,0.4,0,0.6-0.1c0.2-0.1,0.3-0.1,0.5-0.3l0,0c0.2-0.2,0.3-0.5,0.3-0.8v-0.4h-1.2v0.3
				c0,0.1,0,0.1-0.1,0.2c0,0-0.1,0.1-0.1,0.1h-9.1v1.1h3.4l-2.9,1.7v0.9h3.8l-2.3,1.4h-2v1h4.7v2c0,0.2,0,0.3-0.1,0.4
				c-0.1,0.1-0.2,0.1-0.4,0.1h-1.2v1.1h1.4c0.5,0,0.9-0.1,1.2-0.4c0.3-0.3,0.4-0.6,0.4-1.1v-2.1h3.8
				C201.6,30.7,201.8,30.6,201.9,30.6z"/>
		</g>
		<g>
			<path class="st1" d="M208.3,26.2h1.8l-1.5,2.2v0.9h5.2c0.2,0,0.3,0,0.4-0.1c0.1-0.1,0.2-0.2,0.3-0.3c0.1-0.1,0.1-0.2,0.1-0.4
				c0-0.1,0-0.3-0.1-0.4l-1.1-1.7h-1.4l1.2,1.9H210l1.4-2.1h3.3v-1h-2.7v-1.1h-1.2v1.1h-2.6V26.2z"/>
			<path class="st1" d="M204.1,29.8v1h3c0.4,0,0.7-0.1,0.9-0.3c0.2-0.2,0.3-0.5,0.3-0.9v-0.9h-1.2v0.9c0,0.1,0,0.1-0.1,0.1
				c0,0-0.1,0.1-0.2,0.1h-1.1l2.5-2.4v-0.9h-2.4l2.6-2.3h-1.7l-2.8,2.4v0.9h2.4L204.1,29.8z"/>
			<path class="st1" d="M209.4,33c0,0.1-0.1,0.1-0.1,0.2c-0.1,0.1-0.2,0.1-0.2,0.1h-0.6c0,0-0.1,0-0.2-0.1c-0.1-0.1-0.1-0.1-0.1-0.2
				v-2.1h-1.1v2.2c0,0.1,0,0.1,0,0.2h-0.2c0,0,0,0-0.1-0.1c-0.1-0.1-0.1-0.1-0.1-0.1v-2.2h-1.1v2.3c0,0.3,0.1,0.6,0.3,0.8
				c0.2,0.2,0.5,0.3,0.8,0.3h0.3v-1c0,0.2,0.2,0.4,0.3,0.6c0.1,0.1,0.3,0.2,0.4,0.3c0.2,0.1,0.3,0.1,0.5,0.1h0.8
				c0.2,0,0.4,0,0.6-0.1c0.2-0.1,0.3-0.2,0.5-0.3c0.1-0.1,0.2-0.2,0.3-0.4c0.1-0.1,0.1-0.3,0.1-0.5v-3.5h-1.2V33z"/>
			<path class="st1" d="M213.8,33.3c-0.1,0-0.1,0-0.1,0c-0.1,0-0.1-0.1-0.1-0.1c0-0.1-0.1-0.1-0.1-0.2c0-0.1,0-0.1,0-0.2v-3.3
				l-1.2,0v3.3c0,0.2,0,0.4,0.1,0.6c0.1,0.2,0.2,0.3,0.3,0.5c0.1,0.1,0.3,0.3,0.5,0.3c0.2,0.1,0.4,0.1,0.6,0.1h1.2v-1H213.8z"/>
			<path class="st1" d="M204.3,33.2C204.3,33.2,204.3,33.2,204.3,33.2c-0.1,0.1-0.1,0.1-0.1,0.1h-0.3v1h0.5c0.3,0,0.6-0.1,0.8-0.3
				l0,0c0.2-0.2,0.3-0.5,0.3-0.8v-2.3h-1.2V33.2z"/>
		</g>
	</g>
</g>
<g>
	<path class="st0" d="M71.4,44.1l-0.1-0.9h-2l-0.5,0.9h-1.6l3.2-6h2l0.4,6H71.4z M71.1,40.2l-1.1,2h1.3L71.1,40.2z"/>
	<path class="st0" d="M74.2,44.1l1.1-4.5h1.4l-1.1,4.5H74.2z M75.4,39.2l0.2-1h1.4l-0.2,1H75.4z"/>
	<path class="st0" d="M79.8,40.7c-0.3,0-0.5,0-0.6,0.1c-0.1,0.1-0.2,0.3-0.3,0.5l-0.7,2.8h-1.4l1.1-4.5h1.4l-0.1,0.6
		c0.3-0.4,0.6-0.6,1.1-0.6h1.5l-0.3,1.1H79.8z"/>
	<path class="st0" d="M86.9,44.1l0.7-3.2l-1.9,3.2h-1.4L84,41l-0.7,3.2h-1.4l1.4-6h1.6l0.7,3.9l2.5-3.9h0.2h1.4l-1.4,6H86.9z"/>
	<path class="st0" d="M93.7,44.1l-0.1-0.9h-2l-0.5,0.9h-1.6l3.2-6h2l0.4,6H93.7z M93.3,40.2l-1.1,2h1.3L93.3,40.2z"/>
	<path class="st0" d="M101.5,44.1l0.7-3.2l-1.9,3.2h-1.4L98.6,41l-0.7,3.2h-1.4l1.4-6h1.6l0.7,3.9l2.5-3.9h0.2h1.4l-1.4,6H101.5z"/>
</g>
<g>
	<path class="st2" d="M20.5,47h-8.1c-3.2,0-4.1-2.6-2.9-5.8l12-31.7c1.1-3.2,2.8-4.7,6-4.7h6.8c3.2,0,4.1,2.6,2.9,5.8L26.2,41.8
		C25.1,45.1,23.8,47,20.5,47z"/>
	<g>
		<path class="st2" d="M54.1,47h6.4c2.5,0,3.8-2,2.9-4.5l-8.7-21.3c-0.9-2.5-2.9-4-5.4-4h-6.7c-2.5,0-3.8,2-2.9,4.5l8.3,20.8
			C48.8,45,51.6,47,54.1,47z"/>
		<path class="st2" d="M39,37.6h-3.6c-1.6,0-2.5-1.3-1.9-3l5.8-15.1c0.6-1.6,1.7-2.4,3.4-2.4H46c1.6,0,2.5,1.3,1.9,3l-5.5,14.5
			C41.8,36.3,40.6,37.6,39,37.6z"/>
		<path class="st2" d="M35.4,37.6h3.6c2.7,0,1.6-2.5,1-4.1l-5.8-15.3c-0.6-1.6-2.1-2.6-3.8-2.6h-3c-1.6,0-2.5,1.3-1.9,3l6.5,16.1
			C32.5,36.3,33.7,37.6,35.4,37.6z"/>
	</g>
	<g>
		<g>
			<path class="st2" d="M17.4,11.1l-1.9,0c-0.4,0-0.6-0.3-0.4-0.7l0.3-0.7c0.1-0.4,0.6-0.6,1-0.6l1.9,0c0.4,0,0.6,0.3,0.4,0.7
				l-0.3,0.7C18.2,10.8,17.8,11.1,17.4,11.1z"/>
			<path class="st2" d="M15.9,15L14,15c-0.4,0-0.6-0.3-0.4-0.7l0.3-0.8c0.1-0.4,0.6-0.7,1-0.7l1.9,0c0.4,0,0.6,0.3,0.4,0.7l-0.3,0.8
				C16.8,14.7,16.3,15,15.9,15z"/>
			<path class="st2" d="M14.5,19l-1.9,0c-0.4,0-0.6-0.3-0.4-0.7l0.3-0.8c0.1-0.4,0.6-0.7,1-0.7l1.9,0c0.4,0,0.6,0.3,0.4,0.7
				l-0.3,0.8C15.3,18.7,14.9,19,14.5,19z"/>
			<path class="st2" d="M13,22.9l-1.9,0c-0.4,0-0.6-0.3-0.4-0.7l0.3-0.8c0.1-0.4,0.6-0.7,1-0.7l1.9,0c0.4,0,0.6,0.3,0.4,0.7L14,22.2
				C13.8,22.6,13.4,22.9,13,22.9z"/>
			<path class="st2" d="M11.5,26.9l-1.9,0c-0.4,0-0.6-0.3-0.4-0.7l0.3-0.8c0.1-0.4,0.6-0.7,1-0.7l1.9,0c0.4,0,0.6,0.3,0.4,0.7
				l-0.3,0.8C12.4,26.6,11.9,26.9,11.5,26.9z"/>
			<path class="st2" d="M10.1,30.8l-1.9,0c-0.4,0-0.6-0.3-0.4-0.7L8,29.2c0.1-0.4,0.6-0.7,1-0.7l1.9,0c0.4,0,0.6,0.3,0.4,0.7
				l-0.3,0.8C10.9,30.5,10.5,30.8,10.1,30.8z"/>
		</g>
		<g>
			<path class="st2" d="M8.5,35.2l-1.9,0c-0.4,0-0.6-0.3-0.4-0.7l0.3-0.8c0.1-0.4,0.6-0.7,1-0.7l1.9,0c0.4,0,0.6,0.3,0.4,0.7
				l-0.3,0.8C9.3,34.9,8.9,35.2,8.5,35.2z"/>
			<path class="st2" d="M7,39.2l-1.9,0c-0.4,0-0.6-0.3-0.4-0.7L5,37.6c0.1-0.4,0.6-0.7,1-0.7l1.9,0c0.4,0,0.6,0.3,0.4,0.7L8,38.4
				C7.8,38.9,7.4,39.2,7,39.2z"/>
		</g>
	</g>
	<path class="st2" d="M44.2,12.3c0-1.2,0-3.2,0-4.4V6.9c0-1.2,0.8-1.7,1.8-1l0.2,0.2c1,0.7,2.6,1.8,3.6,2.5l0.2,0.2
		c1,0.7,1,1.8,0,2.5l-0.2,0.2c-1,0.7-2.6,1.8-3.6,2.5L46,14.2c-1,0.7-1.8,0.3-1.8-1V12.3z"/>
</g>
</svg>
