<?xml version="1.0" encoding="UTF-8" standalone="no"?>
<!-- Created with Inkscape (http://www.inkscape.org/) -->

<svg
   xmlns:dc="http://purl.org/dc/elements/1.1/"
   xmlns:cc="http://creativecommons.org/ns#"
   xmlns:rdf="http://www.w3.org/1999/02/22-rdf-syntax-ns#"
   xmlns:svg="http://www.w3.org/2000/svg"
   xmlns="http://www.w3.org/2000/svg"
   xmlns:sodipodi="http://sodipodi.sourceforge.net/DTD/sodipodi-0.dtd"
   xmlns:inkscape="http://www.inkscape.org/namespaces/inkscape"
   width="512"
   height="512"
   viewBox="0 0 135.46666 135.46667"
   version="1.1"
   id="svg8"
   inkscape:version="0.92.3 (2405546, 2018-03-11)"
   sodipodi:docname="nodata.svg">
  <defs
     id="defs2">
    <inkscape:path-effect
       effect="bspline"
       id="path-effect1545"
       is_visible="true"
       weight="33.333333"
       steps="2"
       helper_size="0"
       apply_no_weight="true"
       apply_with_weight="true"
       only_selected="false" />
    <inkscape:path-effect
       effect="bspline"
       id="path-effect1541"
       is_visible="true"
       weight="33.333333"
       steps="2"
       helper_size="0"
       apply_no_weight="true"
       apply_with_weight="true"
       only_selected="false" />
    <inkscape:path-effect
       effect="spiro"
       id="path-effect1499"
       is_visible="true" />
    <inkscape:path-effect
       effect="spiro"
       id="path-effect1495"
       is_visible="true" />
    <inkscape:path-effect
       effect="bspline"
       id="path-effect1054"
       is_visible="true"
       weight="33.333333"
       steps="2"
       helper_size="0"
       apply_no_weight="true"
       apply_with_weight="true"
       only_selected="false" />
  </defs>
  <sodipodi:namedview
     id="base"
     pagecolor="#ffffff"
     bordercolor="#666666"
     borderopacity="1.0"
     inkscape:pageopacity="0.0"
     inkscape:pageshadow="2"
     inkscape:zoom="0.98994949"
     inkscape:cx="-12.003361"
     inkscape:cy="358.62142"
     inkscape:document-units="mm"
     inkscape:current-layer="layer1"
     showgrid="false"
     units="px"
     inkscape:window-width="1920"
     inkscape:window-height="1017"
     inkscape:window-x="-8"
     inkscape:window-y="-8"
     inkscape:window-maximized="1" />
  <metadata
     id="metadata5">
    <rdf:RDF>
      <cc:Work
         rdf:about="">
        <dc:format>image/svg+xml</dc:format>
        <dc:type
           rdf:resource="http://purl.org/dc/dcmitype/StillImage" />
        <dc:title></dc:title>
      </cc:Work>
    </rdf:RDF>
  </metadata>
  <g
     inkscape:label="圖層 1"
     inkscape:groupmode="layer"
     id="layer1"
     transform="translate(0,-161.53332)">
    <path
       style="opacity:1;fill:#4c5b80;fill-opacity:1;stroke:none;stroke-width:1.00000012;stroke-miterlimit:4;stroke-dasharray:none;stroke-dashoffset:0;stroke-opacity:1"
       d="m 29.863946,205.0044 -0.119039,0.40481 c -0.06544,0.22266 -0.49013,1.79582 -0.943244,3.49614 -2.706501,10.15621 -2.917191,15.15982 -0.829773,19.69101 1.124176,2.44028 2.95416,4.50501 5.076432,5.72809 0.582906,0.33594 1.023685,0.49248 2.211765,0.78601 1.270015,0.31372 1.799208,0.38603 3.672717,0.49977 4.113546,0.24974 4.917048,0.44315 9.304405,2.24098 2.436854,0.99858 4.355063,1.64824 6.039419,2.01067 0.727076,0.50298 1.705481,0.88417 3.086653,1.22559 3.981407,0.98418 9.629082,0.98809 17.629966,0.0119 1.484006,-0.18106 4.122524,-0.50237 5.862996,-0.71426 7.324005,-0.89164 11.598132,-1.13252 15.155382,-0.85353 5.650855,0.44317 9.506205,2.39049 13.007965,6.57051 0.72212,0.86199 2.59871,3.53854 3.5051,4.99892 l 0.38519,0.62077 0.11904,-0.40482 c 0.0654,-0.22265 0.48996,-1.79617 0.94306,-3.4965 2.7065,-10.1562 2.9172,-15.1598 0.82977,-19.69099 -1.12422,-2.44026 -2.95415,-4.50501 -5.07643,-5.7281 -0.5829,-0.33593 -1.02368,-0.49248 -2.21177,-0.78601 -1.27002,-0.31373 -1.7992,-0.38602 -3.67271,-0.49976 -4.113536,-0.24973 -4.917043,-0.44314 -9.304405,-2.241 -2.437063,-0.99866 -4.355133,-1.6486 -6.039597,-2.01101 -0.727039,-0.50287 -1.705494,-0.88386 -3.086474,-1.22524 -3.981404,-0.98419 -9.629073,-0.98808 -17.62996,-0.0119 -1.484016,0.18105 -4.122345,0.50274 -5.862814,0.71462 -7.324015,0.89163 -11.598311,1.13217 -15.155566,0.85318 -5.650852,-0.44318 -9.506196,-2.39049 -13.007964,-6.57052 -0.722122,-0.86199 -2.598711,-3.53853 -3.505101,-4.99892 z"
       id="path1547-1"
       inkscape:connector-curvature="0" />
    <ellipse
       style="opacity:1;fill:#f2f2f2;fill-opacity:1;stroke:none;stroke-width:0.96499997;stroke-miterlimit:4;stroke-dasharray:none;stroke-dashoffset:0;stroke-opacity:0.67080748"
       id="path1128"
       cx="98.462799"
       cy="193.81248"
       rx="4.5357141"
       ry="4.5357146" />
    <ellipse
       style="opacity:1;fill:#f2f2f2;fill-opacity:1;stroke:none;stroke-width:0.96499997;stroke-miterlimit:4;stroke-dasharray:none;stroke-dashoffset:0;stroke-opacity:0.67080748"
       id="path1128-1"
       cx="35.907738"
       cy="224.61755"
       rx="4.5357141"
       ry="4.5357146" />
    <ellipse
       style="opacity:1;fill:#f2f2f2;fill-opacity:1;stroke:none;stroke-width:0.96499997;stroke-miterlimit:4;stroke-dasharray:none;stroke-dashoffset:0;stroke-opacity:0.67080748"
       id="path1128-1-3"
       cx="100.73065"
       cy="222.53868"
       rx="2.2678573"
       ry="2.2678576" />
    <ellipse
       style="opacity:1;fill:#f2f2f2;fill-opacity:1;stroke:none;stroke-width:0.96499997;stroke-miterlimit:4;stroke-dasharray:none;stroke-dashoffset:0;stroke-opacity:0.67080748"
       id="path1128-1-3-6"
       cx="91.28125"
       cy="210.25446"
       rx="2.2678573"
       ry="2.2678576" />
    <path
       style="opacity:1;fill:#cccccc;fill-opacity:1;stroke:none;stroke-width:1.00000012;stroke-miterlimit:4;stroke-dasharray:none;stroke-dashoffset:0;stroke-opacity:1"
       d="m 71.594637,207.90963 c -0.0611,0 -0.11122,0.0296 -0.11122,0.0658 0,0.0362 -0.11424,0.0874 -0.25402,0.11364 -0.18721,0.0351 -0.27978,0.10543 -0.35147,0.26739 -0.0535,0.12093 -0.12254,0.22 -0.15334,0.22 -0.0308,0 -0.0561,0.46672 -0.0561,1.03717 0,0.64206 0.0283,1.03717 0.0741,1.03717 0.0471,0 0.0741,0.5914 0.0741,1.62625 0,1.88202 0.0393,2.05466 0.51858,2.27793 0.24237,0.11289 0.40222,0.11482 0.75438,0.009 0.25563,-0.0766 0.30044,-0.12495 0.37598,-0.40737 0.0472,-0.17629 0.11214,-0.32047 0.14443,-0.32047 0.0323,0 0.0588,-0.11668 0.0588,-0.25929 0,-0.14261 -0.0292,-0.25929 -0.0648,-0.25929 -0.0356,0 -0.0791,-1.08302 -0.0964,-2.40656 l -0.0314,-2.40636 -0.25038,-0.22364 c -0.13771,-0.12295 -0.31114,-0.22344 -0.38529,-0.22344 -0.0742,0 -0.13491,-0.0334 -0.13491,-0.0741 0,-0.0407 -0.0499,-0.0741 -0.11101,-0.0741 z m 12.63241,2.73594 c -0.19376,-0.002 -0.38747,0.0345 -0.41629,0.10959 -0.022,0.0574 -0.12311,0.12544 -0.22465,0.15092 -0.11335,0.0285 -0.21273,0.1269 -0.25747,0.25524 -0.0401,0.11496 -0.1511,0.25076 -0.24653,0.30183 -0.0954,0.0511 -0.21403,0.16903 -0.26375,0.26193 -0.0497,0.0929 -0.1664,0.20958 -0.25929,0.25929 -0.0929,0.0497 -0.20958,0.1664 -0.25929,0.25929 -0.0497,0.0929 -0.1664,0.20958 -0.2593,0.2593 -0.0929,0.0497 -0.20957,0.16639 -0.25929,0.25929 -0.0497,0.0929 -0.17022,0.21143 -0.2676,0.26355 -0.0974,0.0521 -0.17705,0.13841 -0.17705,0.19163 0,0.0532 -0.2583,0.36118 -0.57409,0.68449 -0.77617,0.79469 -0.75944,0.7685 -0.75944,1.18748 0,0.29378 0.0375,0.40735 0.1811,0.551 0.0995,0.0995 0.22448,0.19846 0.27773,0.21979 0.0532,0.0213 0.2469,0.0408 0.43026,0.0434 0.26234,0.004 0.37056,-0.0345 0.50785,-0.17927 0.096,-0.10117 0.19871,-0.18394 0.2283,-0.18394 0.0296,0 0.0964,-0.0797 0.14848,-0.17705 0.0521,-0.0974 0.17086,-0.21768 0.26375,-0.2674 0.0929,-0.0497 0.20958,-0.16639 0.2593,-0.25929 0.0497,-0.0929 0.16639,-0.20958 0.25929,-0.25929 0.0929,-0.0497 0.20958,-0.1664 0.25929,-0.25929 0.0497,-0.0929 0.1664,-0.20958 0.25929,-0.2593 0.0929,-0.0497 0.21421,-0.17663 0.26963,-0.28198 0.0554,-0.10534 0.43402,-0.53203 0.84148,-0.94824 0.40746,-0.41621 0.78266,-0.80841 0.83359,-0.87147 0.107,-0.13247 0.12655,-0.7876 0.0235,-0.7876 -0.038,0 -0.0904,-0.0668 -0.11628,-0.14828 -0.0259,-0.0815 -0.0912,-0.14808 -0.14524,-0.14808 -0.054,0 -0.11734,-0.0501 -0.14079,-0.11121 -0.029,-0.0756 -0.22273,-0.11473 -0.41649,-0.11628 z m -25.78585,0.3387 c -0.32677,0 -0.58908,0.1425 -0.58908,0.32006 0,0.0393 -0.0501,0.0906 -0.11121,0.11405 -0.08,0.0307 -0.11101,0.15592 -0.11101,0.44749 v 0.40494 l 1.1184,1.11617 c 0.61519,0.61388 1.14443,1.11618 1.17614,1.11618 0.0317,0 0.4053,0.34628 0.83014,0.76957 0.42484,0.4233 0.83729,0.78783 0.91664,0.81009 0.24241,0.068 0.79302,-0.002 0.85283,-0.10878 0.031,-0.0553 0.12922,-0.18377 0.21817,-0.28563 0.13077,-0.14977 0.15456,-0.24854 0.12479,-0.51616 -0.0202,-0.18202 -0.0733,-0.34302 -0.1181,-0.35794 -0.0447,-0.0149 -0.0814,-0.0755 -0.0814,-0.13451 0,-0.059 -0.0521,-0.12711 -0.11567,-0.15152 -0.0636,-0.0244 -0.55935,-0.49019 -1.10159,-1.03495 -0.54224,-0.54475 -1.00967,-0.99037 -1.03879,-0.99037 -0.0291,0 -0.34811,-0.29171 -0.70901,-0.64824 -0.8955,-0.88465 -0.87512,-0.87045 -1.26121,-0.87045 z m 12.85707,9.37141 c -8.82907,0 -15.22412,0.0276 -15.22412,0.0658 0,0.0362 -0.11669,0.0879 -0.2593,0.11466 -0.14261,0.0267 -0.25929,0.0767 -0.25929,0.11121 0,0.0345 -0.089,0.0851 -0.19771,0.11243 -0.22745,0.0571 -0.89759,0.71453 -1.06168,1.04163 -0.0611,0.12169 -0.15279,0.24777 -0.20379,0.28036 -0.051,0.0326 -0.0926,0.10408 -0.0926,0.15881 0,0.0547 -0.0468,0.1176 -0.10412,0.13957 -0.0573,0.022 -0.12603,0.13933 -0.15274,0.26092 -0.0267,0.12158 -0.0965,0.23943 -0.15517,0.26192 -0.0586,0.0225 -0.10655,0.092 -0.10655,0.15436 0,0.0624 -0.0294,0.11365 -0.0652,0.11365 -0.0358,0 -0.10636,0.1 -0.15699,0.22222 -0.0506,0.12224 -0.1214,0.22222 -0.1572,0.22222 -0.0358,0 -0.0652,0.0448 -0.0652,0.0997 0,0.0549 -0.0666,0.17667 -0.14808,0.27063 -0.0815,0.094 -0.14808,0.21691 -0.14808,0.27307 0,0.0562 -0.0481,0.12052 -0.10676,0.14302 -0.0586,0.0225 -0.12718,0.13535 -0.15253,0.25078 -0.0254,0.11543 -0.0911,0.22713 -0.14585,0.24815 -0.0548,0.021 -0.12138,0.13771 -0.14809,0.2593 -0.0267,0.12158 -0.0965,0.23942 -0.15517,0.26192 -0.0586,0.0225 -0.10655,0.092 -0.10655,0.15436 0,0.0624 -0.0272,0.11344 -0.0604,0.11344 -0.0331,0 -0.10535,0.11534 -0.16065,0.25626 -0.0553,0.14091 -0.14494,0.27314 -0.19912,0.29393 -0.0542,0.0208 -0.0984,0.0889 -0.0984,0.15132 0,0.0624 -0.0308,0.11344 -0.0683,0.11344 -0.0375,0 -0.0906,0.1023 -0.1181,0.22729 -0.0275,0.12499 -0.0947,0.24434 -0.1495,0.26537 -0.0548,0.021 -0.12029,0.13272 -0.14565,0.24815 -0.0253,0.11543 -0.0898,0.22665 -0.14322,0.24714 -0.0534,0.0205 -0.11939,0.12614 -0.14666,0.23478 -0.0273,0.10864 -0.0899,0.24583 -0.13917,0.30487 -0.0493,0.0591 -0.12445,0.14779 -0.16691,0.19731 -0.0425,0.0495 -0.12443,0.20682 -0.18232,0.34943 -0.10067,0.248 -0.15246,0.32998 -0.34498,0.54634 -0.0474,0.0532 -0.12769,0.23547 -0.17847,0.40494 -0.0508,0.16948 -0.11678,0.30812 -0.14666,0.30812 -0.0299,0 -0.0753,0.0833 -0.10088,0.18515 -0.0256,0.10186 -0.0747,0.18515 -0.10939,0.18515 -0.0346,0 -0.10505,0.15007 -0.15639,0.33343 -0.0513,0.18336 -0.12235,0.33344 -0.1578,0.33344 -0.0354,0 -0.0646,0.0475 -0.0646,0.10574 0,0.0582 -0.0472,0.15318 -0.10514,0.21108 -0.0579,0.0579 -0.14466,0.25197 -0.19285,0.43128 -0.0482,0.1793 -0.11837,0.34523 -0.15598,0.36868 -0.0376,0.0234 -0.0889,0.21516 -0.11384,0.42601 -0.025,0.21084 -0.0741,0.38327 -0.10919,0.38327 -0.0351,0 -0.0638,2.59905 -0.0638,5.77858 0,3.17818 0.0288,5.77857 0.0638,5.77857 0.035,0 0.0832,0.18845 0.10696,0.41892 0.0238,0.23048 0.0737,0.43889 0.1108,0.46309 0.0371,0.0242 0.10874,0.17067 0.15923,0.32553 0.0967,0.29655 0.8651,1.12083 1.12042,1.20186 0.0785,0.0249 0.14282,0.0749 0.14282,0.11101 0,0.0362 0.11668,0.0877 0.25929,0.11446 0.14262,0.0267 0.25929,0.0758 0.25929,0.10918 0,0.0334 0.075,0.0753 0.16672,0.0932 0.0917,0.0179 9.52735,0.0285 20.96827,0.0237 15.21088,-0.006 20.81598,-0.031 20.85463,-0.0914 0.0291,-0.0454 0.12771,-0.1061 0.21939,-0.13471 0.0917,-0.0286 0.16671,-0.0795 0.16671,-0.11304 0,-0.0336 0.09,-0.0836 0.19994,-0.11121 0.20287,-0.0509 0.98552,-0.77933 0.98552,-0.91725 0,-0.0414 0.0438,-0.11935 0.0974,-0.17319 0.12364,-0.12403 0.27286,-0.54814 0.27286,-0.77565 0,-0.0958 0.0334,-0.17422 0.0741,-0.17422 0.0488,0 0.0741,-2.0866 0.0741,-6.11181 0,-3.36154 -0.0266,-6.11181 -0.0589,-6.11181 -0.0323,0 -0.10316,-0.20017 -0.1574,-0.44465 -0.0542,-0.24447 -0.12497,-0.44444 -0.1574,-0.44444 -0.0324,0 -0.0809,-0.1 -0.10777,-0.22222 -0.0268,-0.12224 -0.0743,-0.22222 -0.10533,-0.22222 -0.031,0 -0.0964,-0.13339 -0.14525,-0.29637 -0.0488,-0.16298 -0.11808,-0.29636 -0.15395,-0.29636 -0.0359,0 -0.0872,-0.1 -0.11405,-0.22222 -0.0268,-0.12224 -0.0743,-0.22223 -0.10534,-0.22223 -0.031,0 -0.0964,-0.13338 -0.14525,-0.29636 -0.0488,-0.16298 -0.12092,-0.29636 -0.16003,-0.29636 -0.0391,0 -0.0711,-0.045 -0.0711,-0.0999 0,-0.0549 -0.0646,-0.17429 -0.14362,-0.26537 -0.079,-0.0911 -0.16491,-0.26276 -0.19103,-0.38165 -0.0261,-0.11888 -0.0782,-0.21614 -0.11567,-0.21614 -0.0375,0 -0.0683,-0.051 -0.0683,-0.11344 0,-0.0624 -0.0462,-0.13124 -0.1027,-0.15294 -0.0566,-0.0217 -0.14358,-0.18528 -0.19346,-0.36342 -0.0499,-0.17814 -0.1371,-0.34171 -0.19366,-0.36341 -0.0565,-0.0217 -0.1027,-0.0903 -0.1027,-0.15274 0,-0.0624 -0.0272,-0.11344 -0.0604,-0.11344 -0.0331,0 -0.1059,-0.11668 -0.16186,-0.2593 -0.0559,-0.14261 -0.12891,-0.25929 -0.16205,-0.25929 -0.0331,0 -0.0604,-0.0512 -0.0604,-0.11364 0,-0.0624 -0.0479,-0.13186 -0.10656,-0.15436 -0.0586,-0.0225 -0.12846,-0.14034 -0.15517,-0.26193 -0.0267,-0.12159 -0.0933,-0.23827 -0.14808,-0.25929 -0.0548,-0.021 -0.12029,-0.13252 -0.14565,-0.24795 -0.0253,-0.11543 -0.0911,-0.22713 -0.14585,-0.24815 -0.0548,-0.021 -0.12138,-0.13771 -0.14808,-0.25929 -0.0267,-0.12159 -0.0965,-0.23943 -0.15517,-0.26193 -0.0586,-0.0225 -0.10655,-0.0884 -0.10655,-0.14646 0,-0.058 -0.0469,-0.12367 -0.10413,-0.14565 -0.0573,-0.022 -0.12603,-0.13932 -0.15274,-0.26091 -0.0267,-0.12159 -0.0965,-0.23943 -0.15517,-0.26193 -0.0586,-0.0225 -0.10655,-0.0884 -0.10655,-0.14646 0,-0.058 -0.0469,-0.12347 -0.10412,-0.14545 -0.0573,-0.022 -0.12604,-0.13952 -0.15274,-0.26111 -0.0267,-0.12159 -0.0965,-0.23943 -0.15517,-0.26193 -0.0586,-0.0225 -0.10656,-0.092 -0.10656,-0.15436 0,-0.0624 -0.0294,-0.11344 -0.0652,-0.11344 -0.0358,0 -0.10951,-0.10843 -0.16388,-0.24086 -0.0544,-0.13242 -0.12579,-0.27405 -0.15861,-0.31479 -0.0328,-0.0408 -0.12568,-0.1543 -0.20642,-0.25221 -0.0807,-0.0979 -0.14666,-0.22379 -0.14666,-0.27995 0,-0.0562 -0.0501,-0.12139 -0.11122,-0.14484 -0.0611,-0.0234 -0.11121,-0.0787 -0.11121,-0.12276 0,-0.1196 -0.85479,-0.92037 -1.04791,-0.98167 -0.0921,-0.0292 -0.21307,-0.0988 -0.26881,-0.15456 -0.0557,-0.0557 -0.18242,-0.10128 -0.28137,-0.10128 -0.099,0 -0.17989,-0.0334 -0.17989,-0.0742 0,-0.0491 -5.12406,-0.0741 -15.22412,-0.0741 z m 0.25929,1.55575 c 8.70509,0 14.37231,0.027 14.37231,0.0683 0,0.0375 0.0951,0.0891 0.21149,0.11466 0.126,0.0277 0.25342,0.12755 0.3148,0.24673 0.0567,0.11009 0.14489,0.22671 0.19588,0.25929 0.051,0.0326 0.0926,0.10408 0.0926,0.15882 0,0.0547 0.0469,0.11759 0.10413,0.13957 0.0573,0.022 0.12603,0.13933 0.15274,0.26091 0.0267,0.12159 0.0965,0.23943 0.15517,0.26193 0.0586,0.0225 0.10655,0.092 0.10655,0.15436 0,0.0624 0.0292,0.11365 0.0646,0.11365 0.0354,0 0.10578,0.14781 0.15639,0.32857 0.0506,0.18074 0.13832,0.34637 0.19487,0.36807 0.0566,0.0217 0.1027,0.0906 0.1027,0.15294 0,0.0624 0.0268,0.11344 0.0594,0.11344 0.0326,0 0.10391,0.1238 0.15862,0.2751 0.0547,0.1513 0.13635,0.31685 0.1815,0.36787 0.20929,0.23646 0.25262,0.31027 0.34154,0.58361 0.0523,0.16068 0.14033,0.31868 0.19569,0.35126 0.0554,0.0326 0.10047,0.10762 0.10047,0.16672 0,0.0591 0.0281,0.10756 0.0624,0.10756 0.0343,0 0.10229,0.13338 0.15112,0.29637 0.0488,0.16298 0.12092,0.29615 0.16003,0.29615 0.0391,0 0.0711,0.045 0.0711,0.0999 0,0.0549 0.0646,0.1743 0.14363,0.26537 0.079,0.0911 0.16491,0.26297 0.19102,0.38185 0.0261,0.11889 0.0782,0.21615 0.11567,0.21615 0.0375,0 0.0683,0.0483 0.0683,0.10736 0,0.0591 0.0453,0.13413 0.10068,0.16672 0.0554,0.0326 0.14363,0.19163 0.19629,0.35349 0.0527,0.16185 0.13247,0.33566 0.17725,0.3863 0.20735,0.23449 0.25356,0.31033 0.34579,0.56538 0.0542,0.15003 0.12261,0.27287 0.15193,0.27287 0.0293,0 0.0748,0.0971 0.10088,0.21594 0.0261,0.11883 0.0923,0.2332 0.14707,0.25423 0.0548,0.021 0.12205,0.14058 0.1495,0.26557 0.0274,0.12499 0.0769,0.22729 0.11,0.22729 0.0331,0 0.0812,0.0833 0.10675,0.18515 0.0256,0.10186 0.0766,0.18515 0.11344,0.18515 0.0368,0 0.10548,0.11668 0.15254,0.25929 0.0471,0.14261 0.11617,0.25929 0.15375,0.25929 0.0376,0 0.0685,0.0829 0.0685,0.18414 v 0.18414 l -7.30334,0.0196 c -6.51935,0.0175 -7.31252,0.032 -7.38984,0.13532 -0.0476,0.0636 -0.14484,0.13753 -0.21615,0.16428 -0.0713,0.0268 -0.12964,0.097 -0.12964,0.15598 0,0.059 -0.0388,0.12017 -0.0861,0.13593 -0.0527,0.0176 -0.11434,0.36374 -0.15963,0.89517 -0.0406,0.47659 -0.0983,0.8666 -0.12802,0.8666 -0.0297,0 -0.0773,0.15526 -0.10575,0.34498 -0.0284,0.18972 -0.0989,0.39204 -0.15659,0.44971 -0.0577,0.0577 -0.10473,0.18682 -0.10473,0.28705 0,0.10023 -0.0481,0.20073 -0.10675,0.22323 -0.0586,0.0225 -0.12786,0.13803 -0.15396,0.25686 -0.0261,0.11884 -0.0793,0.21615 -0.1181,0.21615 -0.0388,0 -0.092,0.0583 -0.1185,0.12965 -0.0602,0.16205 -1.10732,1.20388 -1.20997,1.20388 -0.0415,0 -0.0924,0.0443 -0.11323,0.0985 -0.0208,0.0542 -0.15322,0.14383 -0.29414,0.19912 -0.14091,0.0553 -0.25605,0.12393 -0.25605,0.15254 0,0.0286 -0.11438,0.0735 -0.25403,0.0997 -0.13964,0.0262 -0.26498,0.0809 -0.27853,0.12154 -0.0136,0.0407 -0.31602,0.1137 -0.67214,0.16226 -0.35612,0.0486 -0.64742,0.11413 -0.64742,0.14585 0,0.0317 -0.23336,0.0577 -0.51859,0.0577 -0.29633,0 -0.51858,-0.0318 -0.51858,-0.0741 0,-0.0407 -0.11112,-0.0741 -0.24694,-0.0741 -0.37848,0 -1.11189,-0.16378 -1.22151,-0.27286 -0.0538,-0.0536 -0.14558,-0.0974 -0.20379,-0.0974 -0.0582,0 -0.10574,-0.029 -0.10574,-0.0644 0,-0.0354 -0.15008,-0.10647 -0.33343,-0.1578 -0.18336,-0.0513 -0.33344,-0.12351 -0.33344,-0.16024 0,-0.0367 -0.0556,-0.0882 -0.12357,-0.11425 -0.18222,-0.0699 -1.06168,-0.97356 -1.06168,-1.09085 0,-0.0554 -0.0501,-0.11977 -0.11121,-0.14322 -0.0611,-0.0234 -0.11101,-0.09 -0.11101,-0.14808 0,-0.058 -0.0469,-0.12367 -0.10412,-0.14565 -0.0573,-0.022 -0.12671,-0.1422 -0.15416,-0.26719 -0.0275,-0.12499 -0.079,-0.22708 -0.11466,-0.22708 -0.0357,0 -0.0869,-0.11669 -0.11364,-0.2593 -0.0267,-0.14261 -0.0747,-0.25929 -0.10676,-0.25929 -0.0918,0 -0.22161,-0.88226 -0.22161,-1.50633 0,-0.32933 -0.0312,-0.56801 -0.0741,-0.56801 -0.0408,0 -0.0741,-0.0449 -0.0741,-0.0997 0,-0.11542 -0.30748,-0.49306 -0.4015,-0.49306 -0.035,0 -0.10628,-0.0583 -0.15841,-0.12965 -0.089,-0.1217 -0.5381,-0.13097 -7.32846,-0.1497 l -7.23366,-0.0198 0.0512,-0.16186 c 0.0282,-0.089 0.0942,-0.20465 0.14666,-0.25706 0.0524,-0.0524 0.11749,-0.19559 0.14443,-0.31825 0.0269,-0.12265 0.0769,-0.22303 0.11121,-0.22303 0.0343,0 0.0837,-0.0973 0.1098,-0.21614 0.0261,-0.11884 0.0923,-0.23321 0.14707,-0.25423 0.0548,-0.021 0.12204,-0.14058 0.14949,-0.26557 0.0275,-0.12499 0.0799,-0.22729 0.11669,-0.22729 0.0367,0 0.0877,-0.0833 0.11323,-0.18515 0.0256,-0.10187 0.0701,-0.18515 0.0989,-0.18515 0.0287,0 0.098,-0.11668 0.15395,-0.25929 0.056,-0.14261 0.12608,-0.2593 0.15599,-0.2593 0.0299,0 0.0765,-0.1 0.10331,-0.22222 0.0268,-0.12224 0.0728,-0.22222 0.10209,-0.22222 0.0293,0 0.0955,-0.11668 0.14707,-0.25929 0.0516,-0.14261 0.12128,-0.25929 0.15497,-0.25929 0.0337,0 0.0822,-0.0835 0.10777,-0.18536 0.0256,-0.10186 0.0749,-0.18515 0.10959,-0.18515 0.0347,0 0.10505,-0.15008 0.15639,-0.33343 0.0513,-0.18336 0.12235,-0.33324 0.1578,-0.33324 0.0354,0 0.0644,-0.0485 0.0644,-0.10756 0,-0.0591 0.0453,-0.13413 0.10068,-0.16672 0.0554,-0.0326 0.14115,-0.18428 0.19082,-0.33708 0.0497,-0.1528 0.11839,-0.27773 0.15274,-0.27773 0.0344,0 0.0839,-0.0973 0.11,-0.21614 0.0261,-0.11883 0.0923,-0.2332 0.14706,-0.25423 0.0548,-0.021 0.12205,-0.14038 0.1495,-0.26537 0.0275,-0.12499 0.078,-0.22729 0.11223,-0.22729 0.0343,0 0.0844,-0.1 0.11121,-0.22222 0.0268,-0.12223 0.0769,-0.22242 0.11121,-0.22242 0.0343,0 0.10102,-0.11668 0.14808,-0.25929 0.0471,-0.14261 0.11553,-0.2593 0.15234,-0.2593 0.0368,0 0.0879,-0.0833 0.11344,-0.18515 0.0256,-0.10186 0.0719,-0.18515 0.10291,-0.18515 0.031,0 0.0979,-0.14803 0.14849,-0.32877 0.0506,-0.18076 0.13832,-0.34638 0.19487,-0.36808 0.0566,-0.0217 0.1027,-0.0868 0.1027,-0.14484 0,-0.058 0.0501,-0.12483 0.11122,-0.14828 0.0611,-0.0234 0.11121,-0.0808 0.11121,-0.12762 0,-0.10787 0.51281,-0.61848 0.6851,-0.68206 0.0713,-0.0263 0.12965,-0.0808 0.12965,-0.12094 0,-0.0402 0.11668,-0.0948 0.25929,-0.12154 0.14261,-0.0268 0.25929,-0.0785 0.25929,-0.11466 0,-0.0382 6.04008,-0.0658 14.37231,-0.0658 z"
       id="path1476"
       inkscape:connector-curvature="0" />
    <ellipse
       style="opacity:1;fill:#1a1a1a;fill-opacity:1;stroke:none;stroke-width:1;stroke-miterlimit:4;stroke-dasharray:none;stroke-dashoffset:0;stroke-opacity:1"
       id="path1580"
       cx="71.761871"
       cy="253.30141"
       rx="18.842501"
       ry="3.3408689" />
  </g>
</svg>
