<svg xmlns="http://www.w3.org/2000/svg" viewBox="0 0 65 65">
  <defs>
    <style>
      .cls-1 {
        fill: #0c6;
      }

      .cls-2 {
        fill: #fff;
      }

      .cls-3 {
        fill: #029e4c;
      }

      .cls-4 {
        fill: none;
        stroke: #fff;
        stroke-linecap: round;
        stroke-miterlimit: 10;
        stroke-width: 2px;
      }
    </style>
  </defs>
  <title>Asset 142x</title>
  <g id="Layer_2" data-name="Layer 2">
    <g id="Layer_1-2" data-name="Layer 1">
      <rect class="cls-1" width="65" height="65" rx="6"/>
      <g>
        <rect class="cls-2" x="6.77" y="24.42" width="51.45" height="24.15" rx="11.5"/>
        <circle class="cls-1" cx="19.9" cy="36.5" r="8.92"/>
        <g>
          <path class="cls-1" d="M39.42,33.74a4.39,4.39,0,0,1,1.22,3.34,4.37,4.37,0,0,1-1.22,3.34A4.86,4.86,0,0,1,36,41.57a4.88,4.88,0,0,1-3.46-1.14,4.38,4.38,0,0,1-1.21-3.35,4.35,4.35,0,0,1,1.21-3.34A4.88,4.88,0,0,1,36,32.6,4.9,4.9,0,0,1,39.42,33.74Zm-4.83,1.48a2.17,2.17,0,0,0-.46,1.46v.8A2.18,2.18,0,0,0,34.59,39a1.71,1.71,0,0,0,1.36.54A1.73,1.73,0,0,0,37.32,39a2.18,2.18,0,0,0,.47-1.47v-.8a2.17,2.17,0,0,0-.47-1.46A1.73,1.73,0,0,0,36,34.67,1.71,1.71,0,0,0,34.59,35.22Z"/>
          <path class="cls-1" d="M48.34,41.42,44.7,37.21v4.21H42.14V32.75h2.43L48.21,37V32.75h2.56v8.67Z"/>
        </g>
      </g>
      <g>
        <path d="M65,59V43.46L51.57,56.89,43.46,65H59A6,6,0,0,0,65,59Z"/>
        <path class="cls-3" d="M43.46,49.46V65L56.89,51.57,65,43.46H49.46A6,6,0,0,0,43.46,49.46Z"/>
      </g>
      <line class="cls-4" x1="13" y1="16" x2="52" y2="16"/>
    </g>
  </g>
</svg>
