<svg xmlns="http://www.w3.org/2000/svg" viewBox="0 0 65 65">
  <defs>
    <style>
      .cls-1 {
        fill: #707070;
      }

      .cls-2 {
        fill: #fff;
      }

      .cls-3, .cls-7 {
        opacity: 0.5;
      }

      .cls-4 {
        opacity: 0.6;
      }

      .cls-5 {
        fill: #333;
      }

      .cls-6 {
        fill: none;
      }

      .cls-7 {
        fill: #fffb61;
      }

      .cls-8 {
        fill: #515151;
      }
    </style>
  </defs>
  <title>Asset 142x</title>
  <g id="Layer_2" data-name="Layer 2">
    <g id="Layer_1-2" data-name="Layer 1">
      <rect class="cls-1" width="65" height="65" rx="6"/>
      <g>
        <rect class="cls-2" x="6.27" y="24.42" width="51.45" height="24.15" rx="11.5"/>
        <circle class="cls-1" cx="44.6" cy="36.5" r="8.92"/>
        <g>
          <path class="cls-1" d="M18,33.74a4.71,4.71,0,0,1,1.09,3.34A4.69,4.69,0,0,1,18,40.42a4,4,0,0,1-3.08,1.15,4,4,0,0,1-3.08-1.14,4.7,4.7,0,0,1-1.08-3.35,4.68,4.68,0,0,1,1.08-3.34,4,4,0,0,1,3.08-1.14A4.06,4.06,0,0,1,18,33.74Zm-4.3,1.48a2.39,2.39,0,0,0-.41,1.46v.8A2.4,2.4,0,0,0,13.71,39a1.44,1.44,0,0,0,1.22.54A1.44,1.44,0,0,0,16.14,39a2.34,2.34,0,0,0,.42-1.47v-.8a2.32,2.32,0,0,0-.42-1.46,1.44,1.44,0,0,0-1.21-.55A1.45,1.45,0,0,0,13.71,35.22Z"/>
          <path class="cls-1" d="M20.21,32.75h6.23v2.08H22.69v1.48h3.23v2H22.69v3.12H20.21Z"/>
          <path class="cls-1" d="M27.46,32.75H33.7v2.08H29.94v1.48h3.23v2H29.94v3.12H27.46Z"/>
        </g>
      </g>
      <g>
        <g class="cls-3">
          <path class="cls-2" d="M17,17H13a1,1,0,0,1,0-2h4a1,1,0,0,1,0,2Z"/>
        </g>
        <g class="cls-3">
          <path class="cls-2" d="M51,17H47a1,1,0,0,1,0-2h4a1,1,0,0,1,0,2Z"/>
        </g>
        <g class="cls-4">
          <path class="cls-2" d="M35.65,13.35a1,1,0,0,1-.71-.29,1,1,0,0,1,0-1.41l.35-.36a1,1,0,0,1,1.42,1.42l-.36.35A1,1,0,0,1,35.65,13.35Z"/>
          <path class="cls-2" d="M32.15,16.85a1,1,0,0,1-.71-.29,1,1,0,0,1,0-1.42l.7-.7a1,1,0,1,1,1.42,1.42l-.7.7A1,1,0,0,1,32.15,16.85Z"/>
          <path class="cls-2" d="M29,20a1,1,0,0,1-.71-.29,1,1,0,0,1,0-1.42l.36-.35a1,1,0,0,1,1.41,1.41l-.35.36A1,1,0,0,1,29,20Z"/>
        </g>
      </g>
      <g>
        <g>
          <rect class="cls-5" x="44.07" y="26" width="1.04" height="1.74"/>
          <rect class="cls-5" x="37.19" y="28.78" width="1" height="1.75" transform="translate(-9.93 35.33) rotate(-45)"/>
          <rect class="cls-5" x="34" y="36.07" width="1.91" height="1.04"/>
          <rect class="cls-5" x="36.82" y="42.76" width="1.75" height="1" transform="translate(-19.55 39.33) rotate(-45.01)"/>
          <rect class="cls-5" x="44.07" y="45.26" width="1.04" height="1.74"/>
          <rect class="cls-5" x="50.79" y="42.39" width="1" height="1.75" transform="translate(-15.57 48.94) rotate(-45)"/>
          <rect class="cls-5" x="53.26" y="36.07" width="1.74" height="1.04"/>
          <rect class="cls-5" x="50.42" y="29.16" width="1.75" height="1" transform="translate(-5.95 44.95) rotate(-44.99)"/>
        </g>
        <g>
          <line class="cls-6" x1="44.59" y1="44.74" x2="44.59" y2="44.22"/>
          <line class="cls-6" x1="44.59" y1="28.78" x2="44.59" y2="28.26"/>
          <line class="cls-6" x1="44.59" y1="44.74" x2="44.59" y2="44.22"/>
          <line class="cls-6" x1="44.59" y1="28.78" x2="44.59" y2="28.26"/>
          <polyline class="cls-6" points="49.95 41.96 49.97 41.98 50.3 42.31"/>
          <line class="cls-6" x1="38.95" y1="30.96" x2="38.65" y2="30.66"/>
          <polyline class="cls-6" points="52.74 36.59 52.22 36.59 44.59 36.59"/>
          <line class="cls-6" x1="36.78" y1="36.59" x2="36.26" y2="36.59"/>
          <polyline class="cls-6" points="50.3 30.66 49.98 30.97 44.47 36.48"/>
          <line class="cls-6" x1="38.99" y1="41.96" x2="38.65" y2="42.31"/>
          <path class="cls-6" d="M44.59,28.66v7.82L39.06,31A7.92,7.92,0,0,1,44.59,28.66Z"/>
          <path class="cls-6" d="M50,42l0,0a7.44,7.44,0,0,1-5.44,2.26V36.48Z"/>
          <path class="cls-6" d="M44.59,36.48v7.74h-.13A7.67,7.67,0,0,1,39,42h0Z"/>
          <path class="cls-6" d="M44.47,36.59,39,42v0a8,8,0,0,1-2.26-5.45Z"/>
          <path class="cls-6" d="M44.47,36.59H36.78v-.14A7.58,7.58,0,0,1,39,31Z"/>
          <path class="cls-7" d="M52.4,36.45v0A7.7,7.7,0,0,1,50.1,42l-5.51-5.48V28.66A7.41,7.41,0,0,1,50,31h.07A7.78,7.78,0,0,1,52.4,36.45Z"/>
        </g>
        <path class="cls-2" d="M43.46,37.5a1.4,1.4,0,0,1-.17-2.14l.06-.06a1.4,1.4,0,0,1,2.14.17c1.3,1.54,3.58,4.82,4.62,6.25a.28.28,0,0,1-.39.4C48.05,40.89,45,38.8,43.46,37.5Z"/>
      </g>
      <g>
        <path d="M65,59V43.46L51.57,56.89,43.46,65H59A6,6,0,0,0,65,59Z"/>
        <path class="cls-8" d="M43.46,49.46V65L56.89,51.57,65,43.46H49.46A6,6,0,0,0,43.46,49.46Z"/>
      </g>
    </g>
  </g>
</svg>
