<svg xmlns="http://www.w3.org/2000/svg" viewBox="0 0 65 65">
  <defs>
    <style>
      .cls-1 {
        fill: #b5b5b5;
      }

      .cls-2 {
        fill: #fff;
      }

      .cls-3 {
        fill: #939393;
      }

      .cls-4 {
        opacity: 0.5;
      }
    </style>
  </defs>
  <title>Asset 152x</title>
  <g id="Layer_2" data-name="Layer 2">
    <g id="Layer_1-2" data-name="Layer 1">
      <rect class="cls-1" width="65" height="65" rx="6"/>
      <g>
        <rect class="cls-2" x="6.27" y="24.42" width="51.45" height="24.15" rx="11.5"/>
        <circle class="cls-1" cx="44.6" cy="36.5" r="8.92"/>
        <g>
          <path class="cls-1" d="M18,33.74a4.71,4.71,0,0,1,1.09,3.34A4.69,4.69,0,0,1,18,40.42a4,4,0,0,1-3.08,1.15,4,4,0,0,1-3.08-1.14,4.7,4.7,0,0,1-1.08-3.35,4.68,4.68,0,0,1,1.08-3.34,4,4,0,0,1,3.08-1.14A4.06,4.06,0,0,1,18,33.74Zm-4.3,1.48a2.39,2.39,0,0,0-.41,1.46v.8A2.4,2.4,0,0,0,13.71,39a1.44,1.44,0,0,0,1.22.54A1.44,1.44,0,0,0,16.14,39a2.34,2.34,0,0,0,.42-1.47v-.8a2.32,2.32,0,0,0-.42-1.46,1.44,1.44,0,0,0-1.21-.55A1.45,1.45,0,0,0,13.71,35.22Z"/>
          <path class="cls-1" d="M20.21,32.75h6.23v2.08H22.69v1.48h3.23v2H22.69v3.12H20.21Z"/>
          <path class="cls-1" d="M27.46,32.75H33.7v2.08H29.94v1.48h3.23v2H29.94v3.12H27.46Z"/>
        </g>
      </g>
      <g>
        <path d="M65,59V43.46L51.57,56.89,43.46,65H59A6,6,0,0,0,65,59Z"/>
        <path class="cls-3" d="M43.46,49.46V65L56.89,51.57,65,43.46H49.46A6,6,0,0,0,43.46,49.46Z"/>
      </g>
      <g>
        <g class="cls-4">
          <path class="cls-2" d="M24,17H13a1,1,0,0,1,0-2H24a1,1,0,0,1,0,2Z"/>
        </g>
        <g class="cls-4">
          <path class="cls-2" d="M51,17H40a1,1,0,0,1,0-2H51a1,1,0,0,1,0,2Z"/>
        </g>
        <g>
          <path class="cls-2" d="M35.65,13.35a1,1,0,0,1-.71-.29,1,1,0,0,1,0-1.41l.35-.36a1,1,0,0,1,1.42,1.42l-.36.35A1,1,0,0,1,35.65,13.35Z"/>
          <path class="cls-2" d="M32.15,16.85a1,1,0,0,1-.71-.29,1,1,0,0,1,0-1.42l.7-.7a1,1,0,1,1,1.42,1.42l-.7.7A1,1,0,0,1,32.15,16.85Z"/>
          <path class="cls-2" d="M29,20a1,1,0,0,1-.71-.29,1,1,0,0,1,0-1.42l.36-.35a1,1,0,0,1,1.41,1.41l-.35.36A1,1,0,0,1,29,20Z"/>
        </g>
      </g>
    </g>
  </g>
</svg>
